<svg xmlns="http://www.w3.org/2000/svg" viewBox="0 0 720 576" preserveAspectRatio="xMidYMid slice" aria-hidden="true" focusable="false"><defs><radialGradient id="structured-lattice-glow-soft"><stop offset="0%" stop-color="#4F46E5" stop-opacity="0.2"/><stop offset="100%" stop-color="#4F46E5" stop-opacity="0"/></radialGradient><radialGradient id="structured-lattice-glow-core"><stop offset="0%" stop-color="#818CF8" stop-opacity="0.25"/><stop offset="100%" stop-color="#818CF8" stop-opacity="0"/></radialGradient></defs><circle cx="560" cy="280" r="280" fill="url(#structured-lattice-glow-soft)"/><circle cx="612" cy="296" r="120" fill="url(#structured-lattice-glow-core)"/><rect x="492" y="0" width="228" height="576" fill="#4F46E5" fill-opacity="0.045"/><g><circle cx="8.88" cy="440.53" r="0.99" fill="rgb(74 82 99)" fill-opacity="0.47"/><circle cx="87.71" cy="399.37" r="1.03" fill="rgb(78 86 108)" fill-opacity="0.45"/><circle cx="28.01" cy="44.74" r="0.85" fill="rgb(75 83 101)" fill-opacity="0.48"/><circle cx="91.39" cy="504.17" r="0.93" fill="rgb(78 86 109)" fill-opacity="0.32"/><circle cx="1.53" cy="240.6" r="0.53" fill="rgb(74 82 98)" fill-opacity="0.39"/><circle cx="40.81" cy="32.62" r="1.08" fill="rgb(76 84 103)" fill-opacity="0.33"/><circle cx="225.83" cy="30.32" r="0.89" fill="rgb(83 92 123)" fill-opacity="0.33"/><circle cx="115.47" cy="429.83" r="1.33" fill="rgb(79 87 111)" fill-opacity="0.38"/><circle cx="1.96" cy="91.36" r="0.63" fill="rgb(74 82 98)" fill-opacity="0.45"/><circle cx="0" cy="370.08" r="0.61" fill="rgb(74 82 98)" fill-opacity="0.38"/><circle cx="0.64" cy="551.79" r="0.89" fill="rgb(74 82 98)" fill-opacity="0.38"/><circle cx="65.63" cy="433.52" r="0.69" fill="rgb(77 85 106)" fill-opacity="0.39"/><circle cx="10.17" cy="160.42" r="1.04" fill="rgb(74 82 99)" fill-opacity="0.52"/><circle cx="116.07" cy="211.47" r="1.19" fill="rgb(79 87 112)" fill-opacity="0.3"/><circle cx="257.98" cy="330.75" r="0.91" fill="rgb(84 93 126)" fill-opacity="0.31"/><circle cx="79.19" cy="126.51" r="0.64" fill="rgb(77 86 107)" fill-opacity="0.36"/><circle cx="275.33" cy="370.64" r="0.58" fill="rgb(85 93 127)" fill-opacity="0.22"/><circle cx="7.36" cy="418.68" r="1.09" fill="rgb(74 82 99)" fill-opacity="0.46"/><circle cx="33.88" cy="350.91" r="1.12" fill="rgb(76 84 102)" fill-opacity="0.45"/><circle cx="18.77" cy="509.79" r="1.25" fill="rgb(75 83 100)" fill-opacity="0.45"/><circle cx="251.06" cy="320.71" r="0.68" fill="rgb(84 93 125)" fill-opacity="0.26"/><circle cx="157.95" cy="96.93" r="0.99" fill="rgb(81 89 116)" fill-opacity="0.4"/><circle cx="192.49" cy="91.28" r="0.65" fill="rgb(82 90 120)" fill-opacity="0.33"/><circle cx="2.48" cy="221.29" r="1.08" fill="rgb(74 82 98)" fill-opacity="0.44"/><circle cx="5.36" cy="494.37" r="0.59" fill="rgb(74 82 99)" fill-opacity="0.52"/><circle cx="232.42" cy="470.58" r="0.89" fill="rgb(83 92 123)" fill-opacity="0.27"/><circle cx="178.71" cy="172.07" r="0.97" fill="rgb(81 90 118)" fill-opacity="0.26"/><circle cx="113.59" cy="411.55" r="0.92" fill="rgb(79 87 111)" fill-opacity="0.38"/><circle cx="187.98" cy="287.1" r="0.79" fill="rgb(82 90 119)" fill-opacity="0.28"/><circle cx="132.6" cy="29.77" r="0.69" fill="rgb(80 88 113)" fill-opacity="0.4"/><circle cx="30.34" cy="177.6" r="0.74" fill="rgb(75 83 102)" fill-opacity="0.39"/><circle cx="52.83" cy="169.92" r="1.38" fill="rgb(76 84 104)" fill-opacity="0.49"/><circle cx="257.34" cy="455.02" r="1.1" fill="rgb(84 93 126)" fill-opacity="0.33"/><circle cx="347.85" cy="376.45" r="0.86" fill="rgb(87 96 133)" fill-opacity="0.23"/><circle cx="293.84" cy="509.46" r="0.96" fill="rgb(85 94 129)" fill-opacity="0.24"/><circle cx="46.28" cy="412.26" r="0.52" fill="rgb(76 84 104)" fill-opacity="0.34"/><circle cx="102.87" cy="272.03" r="0.54" fill="rgb(78 87 110)" fill-opacity="0.42"/><circle cx="228.99" cy="165.7" r="0.83" fill="rgb(83 92 123)" fill-opacity="0.26"/><circle cx="32.32" cy="387.63" r="1.05" fill="rgb(75 84 102)" fill-opacity="0.35"/><circle cx="40.47" cy="223.36" r="0.57" fill="rgb(76 84 103)" fill-opacity="0.4"/><circle cx="304.71" cy="261.71" r="0.98" fill="rgb(86 94 130)" fill-opacity="0.21"/><circle cx="268.61" cy="328.49" r="1.23" fill="rgb(85 93 127)" fill-opacity="0.25"/><circle cx="212.69" cy="533.05" r="1.3" fill="rgb(83 91 122)" fill-opacity="0.31"/><circle cx="0.01" cy="560.49" r="1.25" fill="rgb(74 82 98)" fill-opacity="0.49"/><circle cx="181.41" cy="341.26" r="0.64" fill="rgb(81 90 118)" fill-opacity="0.33"/><circle cx="216.89" cy="62.85" r="1.1" fill="rgb(83 91 122)" fill-opacity="0.31"/><circle cx="1.07" cy="267.18" r="0.73" fill="rgb(74 82 98)" fill-opacity="0.43"/><circle cx="113.69" cy="323.69" r="0.96" fill="rgb(79 87 111)" fill-opacity="0.29"/><circle cx="253.99" cy="536.49" r="1.07" fill="rgb(84 93 125)" fill-opacity="0.25"/><circle cx="185.27" cy="92.51" r="0.73" fill="rgb(82 90 119)" fill-opacity="0.3"/><circle cx="65.63" cy="111.78" r="0.87" fill="rgb(77 85 106)" fill-opacity="0.36"/><circle cx="178.29" cy="171.94" r="1" fill="rgb(81 90 118)" fill-opacity="0.27"/><circle cx="279.51" cy="371.92" r="0.5" fill="rgb(85 93 128)" fill-opacity="0.23"/><circle cx="137.69" cy="194.02" r="0.82" fill="rgb(80 88 114)" fill-opacity="0.4"/><circle cx="135.87" cy="402.38" r="0.61" fill="rgb(80 88 114)" fill-opacity="0.35"/><circle cx="237.99" cy="255.96" r="1.12" fill="rgb(84 92 124)" fill-opacity="0.31"/><circle cx="70.4" cy="157.08" r="0.69" fill="rgb(77 85 106)" fill-opacity="0.39"/><circle cx="241.12" cy="234.79" r="0.68" fill="rgb(84 92 124)" fill-opacity="0.31"/><circle cx="51.7" cy="140.43" r="0.76" fill="rgb(76 84 104)" fill-opacity="0.48"/><circle cx="17.82" cy="227.98" r="0.87" fill="rgb(75 83 100)" fill-opacity="0.35"/><circle cx="38.66" cy="257.54" r="1.08" fill="rgb(76 84 103)" fill-opacity="0.41"/><circle cx="318.51" cy="161.24" r="1.04" fill="rgb(86 95 131)" fill-opacity="0.25"/><circle cx="11.82" cy="497" r="0.52" fill="rgb(75 83 99)" fill-opacity="0.41"/><circle cx="260.25" cy="547.09" r="1.11" fill="rgb(84 93 126)" fill-opacity="0.3"/><circle cx="65.88" cy="256.26" r="0.92" fill="rgb(77 85 106)" fill-opacity="0.4"/><circle cx="2.61" cy="513.73" r="0.65" fill="rgb(74 82 98)" fill-opacity="0.54"/><circle cx="239.99" cy="482.16" r="1.36" fill="rgb(84 92 124)" fill-opacity="0.31"/><circle cx="59.33" cy="48.18" r="0.96" fill="rgb(77 85 105)" fill-opacity="0.34"/><circle cx="25.43" cy="228.11" r="1.38" fill="rgb(75 83 101)" fill-opacity="0.45"/><circle cx="63.89" cy="275.05" r="1" fill="rgb(77 85 106)" fill-opacity="0.47"/><circle cx="9.52" cy="393.58" r="0.98" fill="rgb(74 82 99)" fill-opacity="0.45"/><circle cx="175.13" cy="113.08" r="0.9" fill="rgb(81 90 118)" fill-opacity="0.27"/><circle cx="6.1" cy="452.25" r="1.36" fill="rgb(74 82 99)" fill-opacity="0.45"/><circle cx="22.51" cy="275.72" r="1.13" fill="rgb(75 83 101)" fill-opacity="0.38"/><circle cx="7.91" cy="214.15" r="0.79" fill="rgb(74 82 99)" fill-opacity="0.48"/><circle cx="162.24" cy="312.28" r="0.82" fill="rgb(81 89 116)" fill-opacity="0.26"/><circle cx="24.32" cy="7.69" r="0.57" fill="rgb(75 83 101)" fill-opacity="0.4"/><circle cx="37.76" cy="427.84" r="1.14" fill="rgb(76 84 103)" fill-opacity="0.36"/><circle cx="99.8" cy="452.25" r="0.9" fill="rgb(78 87 110)" fill-opacity="0.37"/><circle cx="362.05" cy="383.93" r="0.93" fill="rgb(87 96 134)" fill-opacity="0.26"/><circle cx="224" cy="45.07" r="0.78" fill="rgb(83 92 123)" fill-opacity="0.26"/><circle cx="9.72" cy="96.67" r="1.04" fill="rgb(74 82 99)" fill-opacity="0.47"/><circle cx="255.21" cy="225.09" r="1.09" fill="rgb(84 93 126)" fill-opacity="0.24"/><circle cx="79.7" cy="79.77" r="0.74" fill="rgb(77 86 107)" fill-opacity="0.44"/><circle cx="8.04" cy="133.3" r="0.71" fill="rgb(74 82 99)" fill-opacity="0.35"/><circle cx="250.58" cy="560.77" r="1.29" fill="rgb(84 92 125)" fill-opacity="0.28"/><circle cx="53.41" cy="43.89" r="0.62" fill="rgb(76 84 104)" fill-opacity="0.35"/><circle cx="116.63" cy="373.7" r="0.7" fill="rgb(79 87 112)" fill-opacity="0.41"/><circle cx="41.7" cy="302.93" r="0.53" fill="rgb(76 84 103)" fill-opacity="0.47"/><circle cx="124.43" cy="240.1" r="0.6" fill="rgb(79 88 112)" fill-opacity="0.33"/><circle cx="0.55" cy="489.62" r="0.52" fill="rgb(74 82 98)" fill-opacity="0.46"/><circle cx="0.52" cy="201.53" r="0.58" fill="rgb(74 82 98)" fill-opacity="0.43"/><circle cx="352.47" cy="309.1" r="1.21" fill="rgb(87 96 134)" fill-opacity="0.25"/><circle cx="91.35" cy="68.25" r="1.24" fill="rgb(78 86 109)" fill-opacity="0.41"/><circle cx="5.88" cy="256.22" r="0.93" fill="rgb(74 82 99)" fill-opacity="0.44"/><circle cx="3.13" cy="16" r="1.15" fill="rgb(74 82 98)" fill-opacity="0.41"/><circle cx="0.06" cy="289.73" r="1.11" fill="rgb(74 82 98)" fill-opacity="0.5"/><circle cx="138.82" cy="134.75" r="0.65" fill="rgb(80 88 114)" fill-opacity="0.42"/><circle cx="55.34" cy="337.06" r="0.71" fill="rgb(76 85 105)" fill-opacity="0.48"/><circle cx="357.22" cy="50.97" r="0.83" fill="rgb(87 96 134)" fill-opacity="0.26"/><circle cx="56.04" cy="541.74" r="0.52" fill="rgb(76 85 105)" fill-opacity="0.43"/><circle cx="60.17" cy="300.57" r="0.84" fill="rgb(77 85 105)" fill-opacity="0.38"/><circle cx="21.97" cy="349.37" r="1.18" fill="rgb(75 83 101)" fill-opacity="0.5"/><circle cx="15.04" cy="301.16" r="1.34" fill="rgb(75 83 100)" fill-opacity="0.44"/><circle cx="57.37" cy="483.61" r="0.62" fill="rgb(77 85 105)" fill-opacity="0.35"/><circle cx="46.12" cy="254.98" r="1.3" fill="rgb(76 84 104)" fill-opacity="0.33"/><circle cx="195.37" cy="481.15" r="1.05" fill="rgb(82 90 120)" fill-opacity="0.25"/><circle cx="15.09" cy="394.43" r="0.53" fill="rgb(75 83 100)" fill-opacity="0.4"/><circle cx="272.77" cy="170.03" r="0.63" fill="rgb(85 93 127)" fill-opacity="0.21"/><circle cx="27.78" cy="164.43" r="0.51" fill="rgb(75 83 101)" fill-opacity="0.43"/><circle cx="349.5" cy="35.85" r="0.92" fill="rgb(87 96 134)" fill-opacity="0.24"/><circle cx="281.9" cy="177.5" r="0.53" fill="rgb(85 94 128)" fill-opacity="0.3"/><circle cx="38.15" cy="436.66" r="1.31" fill="rgb(76 84 103)" fill-opacity="0.41"/><circle cx="2.05" cy="185.49" r="1.39" fill="rgb(74 82 98)" fill-opacity="0.39"/><circle cx="7.53" cy="124.46" r="0.56" fill="rgb(74 82 99)" fill-opacity="0.38"/><circle cx="8.6" cy="186.09" r="1.32" fill="rgb(74 82 99)" fill-opacity="0.35"/><circle cx="299.01" cy="482.83" r="0.55" fill="rgb(86 94 129)" fill-opacity="0.26"/><circle cx="21.4" cy="555.85" r="0.75" fill="rgb(75 83 101)" fill-opacity="0.39"/><circle cx="282.09" cy="483.89" r="0.73" fill="rgb(85 94 128)" fill-opacity="0.26"/><circle cx="45.12" cy="405.27" r="0.95" fill="rgb(76 84 103)" fill-opacity="0.43"/><circle cx="192.95" cy="354.7" r="0.95" fill="rgb(82 90 120)" fill-opacity="0.25"/><circle cx="67.4" cy="150.58" r="0.64" fill="rgb(77 85 106)" fill-opacity="0.34"/><circle cx="16.99" cy="377.87" r="1.28" fill="rgb(75 83 100)" fill-opacity="0.36"/><circle cx="3.1" cy="206.16" r="1.08" fill="rgb(74 82 98)" fill-opacity="0.37"/><circle cx="5.85" cy="410.26" r="0.53" fill="rgb(74 82 99)" fill-opacity="0.5"/><circle cx="341.78" cy="68.69" r="0.58" fill="rgb(87 96 133)" fill-opacity="0.27"/><circle cx="94.34" cy="162.05" r="0.78" fill="rgb(78 86 109)" fill-opacity="0.3"/><circle cx="26.99" cy="269.81" r="0.66" fill="rgb(75 83 101)" fill-opacity="0.4"/><circle cx="167.7" cy="377.87" r="0.96" fill="rgb(81 89 117)" fill-opacity="0.28"/><circle cx="144.19" cy="278.61" r="0.51" fill="rgb(80 88 115)" fill-opacity="0.36"/><circle cx="66.28" cy="543.02" r="1.13" fill="rgb(77 85 106)" fill-opacity="0.37"/><circle cx="165.44" cy="543.01" r="0.97" fill="rgb(81 89 117)" fill-opacity="0.29"/><circle cx="0.32" cy="137.74" r="1.19" fill="rgb(74 82 98)" fill-opacity="0.37"/><circle cx="198.13" cy="528.3" r="0.8" fill="rgb(82 91 120)" fill-opacity="0.28"/><circle cx="324.9" cy="467.86" r="0.87" fill="rgb(86 95 132)" fill-opacity="0.25"/><circle cx="15.1" cy="213.23" r="0.82" fill="rgb(75 83 100)" fill-opacity="0.51"/><circle cx="140.48" cy="156.95" r="0.69" fill="rgb(80 88 114)" fill-opacity="0.32"/><circle cx="150.53" cy="395.51" r="0.52" fill="rgb(80 89 115)" fill-opacity="0.27"/><circle cx="228.34" cy="220.27" r="1.05" fill="rgb(83 92 123)" fill-opacity="0.25"/><circle cx="141.97" cy="465.41" r="1.28" fill="rgb(80 88 114)" fill-opacity="0.38"/><circle cx="0.87" cy="395.39" r="0.72" fill="rgb(74 82 98)" fill-opacity="0.4"/><circle cx="162.94" cy="119.73" r="0.86" fill="rgb(81 89 117)" fill-opacity="0.3"/><circle cx="318.2" cy="149.74" r="1.24" fill="rgb(86 95 131)" fill-opacity="0.27"/><circle cx="31.52" cy="211.62" r="0.81" fill="rgb(75 83 102)" fill-opacity="0.39"/><circle cx="91.96" cy="240.11" r="1.06" fill="rgb(78 86 109)" fill-opacity="0.44"/><circle cx="165.12" cy="262.41" r="1.16" fill="rgb(81 89 117)" fill-opacity="0.34"/><circle cx="195.8" cy="117.84" r="1.38" fill="rgb(82 90 120)" fill-opacity="0.36"/><circle cx="2.17" cy="448.38" r="1.37" fill="rgb(74 82 98)" fill-opacity="0.45"/><circle cx="362.32" cy="549.95" r="1.01" fill="rgb(87 96 135)" fill-opacity="0.21"/><circle cx="5.71" cy="450.57" r="0.88" fill="rgb(74 82 99)" fill-opacity="0.35"/><circle cx="34.08" cy="257.54" r="0.79" fill="rgb(76 84 102)" fill-opacity="0.41"/><circle cx="196.98" cy="543.72" r="0.84" fill="rgb(82 91 120)" fill-opacity="0.29"/><circle cx="25.26" cy="244.01" r="1.22" fill="rgb(75 83 101)" fill-opacity="0.36"/><circle cx="83.09" cy="262.31" r="1.02" fill="rgb(78 86 108)" fill-opacity="0.46"/><circle cx="335.8" cy="496.56" r="1.14" fill="rgb(87 95 132)" fill-opacity="0.18"/><circle cx="266.7" cy="267.39" r="0.8" fill="rgb(84 93 127)" fill-opacity="0.23"/><circle cx="52.16" cy="435.31" r="0.88" fill="rgb(76 84 104)" fill-opacity="0.34"/><circle cx="311.59" cy="453.19" r="0.91" fill="rgb(86 95 130)" fill-opacity="0.22"/><circle cx="4.18" cy="247.31" r="0.59" fill="rgb(74 82 99)" fill-opacity="0.53"/><circle cx="12.41" cy="466.59" r="0.68" fill="rgb(75 83 100)" fill-opacity="0.47"/><circle cx="41.5" cy="218.39" r="1.37" fill="rgb(76 84 103)" fill-opacity="0.37"/><circle cx="219.51" cy="110.47" r="1.28" fill="rgb(83 91 122)" fill-opacity="0.35"/><circle cx="5.37" cy="422.88" r="0.61" fill="rgb(74 82 99)" fill-opacity="0.37"/><circle cx="135.61" cy="355.74" r="0.65" fill="rgb(80 88 114)" fill-opacity="0.39"/><circle cx="2.68" cy="451.58" r="0.96" fill="rgb(74 82 98)" fill-opacity="0.37"/><circle cx="284.96" cy="450.88" r="1.19" fill="rgb(85 94 128)" fill-opacity="0.28"/><circle cx="243.18" cy="36.26" r="1.12" fill="rgb(84 92 124)" fill-opacity="0.3"/><circle cx="0.38" cy="229.23" r="1.37" fill="rgb(74 82 98)" fill-opacity="0.4"/><circle cx="28.27" cy="185.33" r="0.93" fill="rgb(75 83 101)" fill-opacity="0.51"/><circle cx="235.63" cy="11.83" r="1.22" fill="rgb(83 92 124)" fill-opacity="0.31"/><circle cx="122.36" cy="255.43" r="1.01" fill="rgb(79 88 112)" fill-opacity="0.28"/><circle cx="10.4" cy="160.23" r="1.2" fill="rgb(74 82 99)" fill-opacity="0.43"/><circle cx="204.03" cy="54.83" r="1.39" fill="rgb(82 91 121)" fill-opacity="0.32"/><circle cx="356.1" cy="567.39" r="0.59" fill="rgb(87 96 134)" fill-opacity="0.25"/><circle cx="2.76" cy="390.46" r="1.19" fill="rgb(74 82 98)" fill-opacity="0.48"/><circle cx="37.23" cy="375.93" r="1.37" fill="rgb(76 84 103)" fill-opacity="0.45"/><circle cx="23.75" cy="259.9" r="0.87" fill="rgb(75 83 101)" fill-opacity="0.51"/><circle cx="76.28" cy="312.16" r="0.67" fill="rgb(77 86 107)" fill-opacity="0.35"/><circle cx="62.67" cy="390.19" r="0.58" fill="rgb(77 85 106)" fill-opacity="0.41"/><circle cx="253.94" cy="486.18" r="1.11" fill="rgb(84 93 125)" fill-opacity="0.22"/><circle cx="86.57" cy="535.02" r="0.75" fill="rgb(78 86 108)" fill-opacity="0.34"/><circle cx="6.48" cy="157.56" r="1.3" fill="rgb(74 82 99)" fill-opacity="0.47"/><circle cx="154.14" cy="446.64" r="0.96" fill="rgb(80 89 116)" fill-opacity="0.39"/><circle cx="20.83" cy="276.82" r="1.21" fill="rgb(75 83 101)" fill-opacity="0.47"/><circle cx="76.97" cy="526.67" r="0.64" fill="rgb(77 86 107)" fill-opacity="0.43"/><circle cx="28.12" cy="33.46" r="1.17" fill="rgb(75 83 101)" fill-opacity="0.51"/><circle cx="159.66" cy="176.44" r="1.03" fill="rgb(81 89 116)" fill-opacity="0.38"/><circle cx="293.73" cy="445.81" r="1.21" fill="rgb(85 94 129)" fill-opacity="0.21"/><circle cx="261.34" cy="512.6" r="1.11" fill="rgb(84 93 126)" fill-opacity="0.29"/><circle cx="17.49" cy="231.71" r="0.81" fill="rgb(75 83 100)" fill-opacity="0.36"/><circle cx="107.08" cy="360.32" r="0.66" fill="rgb(79 87 111)" fill-opacity="0.41"/><circle cx="202.4" cy="563.3" r="1.17" fill="rgb(82 91 121)" fill-opacity="0.25"/><circle cx="91.94" cy="102.56" r="0.77" fill="rgb(78 86 109)" fill-opacity="0.45"/><circle cx="230.29" cy="99.37" r="0.7" fill="rgb(83 92 123)" fill-opacity="0.27"/><circle cx="81.34" cy="38.03" r="0.9" fill="rgb(78 86 108)" fill-opacity="0.45"/><circle cx="71.32" cy="433.07" r="0.95" fill="rgb(77 85 107)" fill-opacity="0.36"/><circle cx="52.39" cy="332.07" r="0.72" fill="rgb(76 84 104)" fill-opacity="0.46"/><circle cx="8.28" cy="230.1" r="0.93" fill="rgb(74 82 99)" fill-opacity="0.46"/><circle cx="97.32" cy="147.6" r="0.57" fill="rgb(78 86 109)" fill-opacity="0.4"/><circle cx="218.74" cy="464.01" r="1.27" fill="rgb(83 91 122)" fill-opacity="0.33"/><circle cx="5.57" cy="344.57" r="1.25" fill="rgb(74 82 99)" fill-opacity="0.48"/><circle cx="5.21" cy="493.05" r="1.29" fill="rgb(74 82 99)" fill-opacity="0.5"/><circle cx="95.58" cy="543.21" r="0.61" fill="rgb(78 86 109)" fill-opacity="0.41"/><circle cx="342.79" cy="107.53" r="1.03" fill="rgb(87 96 133)" fill-opacity="0.21"/></g><g stroke="#6B7484" stroke-width="1" stroke-opacity="0.14"><line x1="-15.06" y1="-11.04" x2="47.64" y2="9.26"/><line x1="7.46" y1="410.78" x2="66.73" y2="374.16"/><line x1="3.8" y1="534.22" x2="69.79" y2="583.47"/><line x1="41.99" y1="149.12" x2="4.63" y2="236.48"/><line x1="221.37" y1="76.28" x2="168.85" y2="158.87"/><line x1="199.7" y1="334.31" x2="131.34" y2="337.94"/><line x1="202.94" y1="470.16" x2="141.95" y2="478.73"/></g><g stroke="#6366F1" stroke-width="1" stroke-opacity="0.16"><line x1="221.37" y1="76.28" x2="216" y2="72"/><line x1="225.79" y1="142.34" x2="216" y2="120"/><line x1="205.98" y1="189.96" x2="216" y2="168"/><line x1="222.77" y1="229.77" x2="216" y2="216"/><line x1="221.62" y1="278.91" x2="216" y2="264"/><line x1="199.7" y1="334.31" x2="216" y2="312"/><line x1="216.31" y1="363.02" x2="216" y2="360"/><line x1="268.13" y1="32.93" x2="264" y2="24"/><line x1="281.19" y1="71.59" x2="264" y2="72"/><line x1="275.16" y1="181.36" x2="264" y2="168"/><line x1="251.93" y1="302.59" x2="264" y2="312"/><line x1="251.58" y1="389.25" x2="264" y2="408"/><line x1="249.17" y1="518.2" x2="264" y2="504"/><line x1="282.22" y1="535.4" x2="264" y2="552"/><line x1="311.97" y1="79.18" x2="312" y2="72"/><line x1="307.93" y1="115.67" x2="312" y2="120"/><line x1="321.01" y1="174.51" x2="312" y2="168"/><line x1="321.27" y1="216.93" x2="312" y2="216"/><line x1="321.22" y1="261.29" x2="312" y2="264"/><line x1="313.94" y1="305.59" x2="312" y2="312"/><line x1="299.02" y1="400.34" x2="312" y2="408"/><line x1="320.49" y1="501.83" x2="312" y2="504"/><line x1="307.58" y1="564.99" x2="312" y2="552"/><line x1="353.88" y1="20.59" x2="360" y2="24"/><line x1="357.64" y1="131.69" x2="360" y2="120"/><line x1="356.02" y1="216.91" x2="360" y2="216"/><line x1="354.91" y1="273.46" x2="360" y2="264"/><line x1="361.78" y1="323.97" x2="360" y2="312"/><line x1="368.4" y1="359.89" x2="360" y2="360"/><line x1="358.44" y1="412.87" x2="360" y2="408"/><line x1="370.61" y1="457.25" x2="360" y2="456"/><line x1="364.76" y1="549.31" x2="360" y2="552"/><line x1="410.08" y1="30.75" x2="408" y2="24"/><line x1="400.24" y1="123.48" x2="408" y2="120"/><line x1="412.4" y1="176.8" x2="408" y2="168"/><line x1="404.54" y1="211.45" x2="408" y2="216"/><line x1="402.82" y1="417.07" x2="408" y2="408"/><line x1="403.88" y1="456.73" x2="408" y2="456"/><line x1="405.94" y1="508.05" x2="408" y2="504"/></g><g stroke="#4F46E5" stroke-width="1"><line x1="459.13" y1="25.69" x2="508.05" y2="25.67" stroke-opacity="0.34"/><line x1="459.13" y1="25.69" x2="457.31" y2="68.83" stroke-opacity="0.34"/><line x1="457.31" y1="68.83" x2="506.81" y2="70.42" stroke-opacity="0.34"/><line x1="457.31" y1="68.83" x2="460.61" y2="119.76" stroke-opacity="0.34"/><line x1="460.61" y1="119.76" x2="507.89" y2="124.47" stroke-opacity="0.34"/><line x1="460.61" y1="119.76" x2="450.99" y2="171.09" stroke-opacity="0.34"/><line x1="450.99" y1="171.09" x2="507.26" y2="163.27" stroke-opacity="0.34"/><line x1="450.99" y1="171.09" x2="455.5" y2="216.83" stroke-opacity="0.34"/><line x1="455.5" y1="216.83" x2="500.84" y2="218.4" stroke-opacity="0.34"/><line x1="455.5" y1="216.83" x2="456.71" y2="269.39" stroke-opacity="0.34"/><line x1="456.71" y1="269.39" x2="500.24" y2="260.03" stroke-opacity="0.34"/><line x1="456.71" y1="269.39" x2="462.3" y2="307.18" stroke-opacity="0.34"/><line x1="462.3" y1="307.18" x2="507.92" y2="309.82" stroke-opacity="0.34"/><line x1="462.3" y1="307.18" x2="450.47" y2="357.04" stroke-opacity="0.34"/><line x1="450.47" y1="357.04" x2="504.85" y2="357.74" stroke-opacity="0.34"/><line x1="450.47" y1="357.04" x2="456.33" y2="406.51" stroke-opacity="0.34"/><line x1="456.33" y1="406.51" x2="506.8" y2="410.09" stroke-opacity="0.34"/><line x1="456.33" y1="406.51" x2="461.7" y2="460.96" stroke-opacity="0.34"/><line x1="461.7" y1="460.96" x2="499.79" y2="455.49" stroke-opacity="0.34"/><line x1="461.7" y1="460.96" x2="456.42" y2="509.67" stroke-opacity="0.34"/><line x1="456.42" y1="509.67" x2="508.56" y2="500.03" stroke-opacity="0.34"/><line x1="456.42" y1="509.67" x2="452.93" y2="551.9" stroke-opacity="0.34"/><line x1="452.93" y1="551.9" x2="500.06" y2="550.87" stroke-opacity="0.34"/><line x1="508.05" y1="25.67" x2="553.69" y2="25.12" stroke-opacity="0.35"/><line x1="508.05" y1="25.67" x2="506.81" y2="70.42" stroke-opacity="0.35"/><line x1="506.81" y1="70.42" x2="550.67" y2="71.99" stroke-opacity="0.35"/><line x1="506.81" y1="70.42" x2="507.89" y2="124.47" stroke-opacity="0.35"/><line x1="507.89" y1="124.47" x2="549.7" y2="119.9" stroke-opacity="0.35"/><line x1="507.89" y1="124.47" x2="507.26" y2="163.27" stroke-opacity="0.35"/><line x1="507.26" y1="163.27" x2="551.63" y2="168.26" stroke-opacity="0.35"/><line x1="507.26" y1="163.27" x2="500.84" y2="218.4" stroke-opacity="0.35"/><line x1="500.84" y1="218.4" x2="550.06" y2="217.59" stroke-opacity="0.35"/><line x1="500.84" y1="218.4" x2="500.24" y2="260.03" stroke-opacity="0.35"/><line x1="500.24" y1="260.03" x2="550.85" y2="265.12" stroke-opacity="0.35"/><line x1="500.24" y1="260.03" x2="507.92" y2="309.82" stroke-opacity="0.35"/><line x1="507.92" y1="309.82" x2="553.94" y2="309.3" stroke-opacity="0.35"/><line x1="507.92" y1="309.82" x2="504.85" y2="357.74" stroke-opacity="0.35"/><line x1="504.85" y1="357.74" x2="550.15" y2="361.27" stroke-opacity="0.35"/><line x1="504.85" y1="357.74" x2="506.8" y2="410.09" stroke-opacity="0.35"/><line x1="506.8" y1="410.09" x2="554.29" y2="406.73" stroke-opacity="0.35"/><line x1="506.8" y1="410.09" x2="499.79" y2="455.49" stroke-opacity="0.35"/><line x1="499.79" y1="455.49" x2="553.98" y2="456.84" stroke-opacity="0.35"/><line x1="499.79" y1="455.49" x2="508.56" y2="500.03" stroke-opacity="0.35"/><line x1="508.56" y1="500.03" x2="550.96" y2="501.64" stroke-opacity="0.35"/><line x1="508.56" y1="500.03" x2="500.06" y2="550.87" stroke-opacity="0.35"/><line x1="500.06" y1="550.87" x2="549.71" y2="554.85" stroke-opacity="0.35"/><line x1="553.69" y1="25.12" x2="600.57" y2="23.29" stroke-opacity="0.36"/><line x1="553.69" y1="25.12" x2="550.67" y2="71.99" stroke-opacity="0.36"/><line x1="550.67" y1="71.99" x2="600.05" y2="70.74" stroke-opacity="0.36"/><line x1="550.67" y1="71.99" x2="549.7" y2="119.9" stroke-opacity="0.36"/><line x1="549.7" y1="119.9" x2="600.05" y2="119.78" stroke-opacity="0.36"/><line x1="549.7" y1="119.9" x2="551.63" y2="168.26" stroke-opacity="0.36"/><line x1="551.63" y1="168.26" x2="600.82" y2="167.01" stroke-opacity="0.36"/><line x1="551.63" y1="168.26" x2="550.06" y2="217.59" stroke-opacity="0.36"/><line x1="550.06" y1="217.59" x2="600.71" y2="215.04" stroke-opacity="0.36"/><line x1="550.06" y1="217.59" x2="550.85" y2="265.12" stroke-opacity="0.36"/><line x1="550.85" y1="265.12" x2="599.24" y2="263.14" stroke-opacity="0.36"/><line x1="550.85" y1="265.12" x2="553.94" y2="309.3" stroke-opacity="0.36"/><line x1="553.94" y1="309.3" x2="601.11" y2="310.63" stroke-opacity="0.36"/><line x1="553.94" y1="309.3" x2="550.15" y2="361.27" stroke-opacity="0.36"/><line x1="550.15" y1="361.27" x2="598.63" y2="361.29" stroke-opacity="0.36"/><line x1="550.15" y1="361.27" x2="554.29" y2="406.73" stroke-opacity="0.36"/><line x1="554.29" y1="406.73" x2="601.23" y2="407.95" stroke-opacity="0.36"/><line x1="554.29" y1="406.73" x2="553.98" y2="456.84" stroke-opacity="0.36"/><line x1="553.98" y1="456.84" x2="600.22" y2="456.6" stroke-opacity="0.36"/><line x1="553.98" y1="456.84" x2="550.96" y2="501.64" stroke-opacity="0.36"/><line x1="550.96" y1="501.64" x2="599.04" y2="504.05" stroke-opacity="0.36"/><line x1="550.96" y1="501.64" x2="549.71" y2="554.85" stroke-opacity="0.36"/><line x1="549.71" y1="554.85" x2="598.75" y2="552.28" stroke-opacity="0.36"/><line x1="600.57" y1="23.29" x2="648.2" y2="24.31" stroke-opacity="0.37"/><line x1="600.57" y1="23.29" x2="600.05" y2="70.74" stroke-opacity="0.37"/><line x1="600.05" y1="70.74" x2="647.61" y2="72.06" stroke-opacity="0.37"/><line x1="600.05" y1="70.74" x2="600.05" y2="119.78" stroke-opacity="0.37"/><line x1="600.05" y1="119.78" x2="647.88" y2="119.6" stroke-opacity="0.37"/><line x1="600.05" y1="119.78" x2="600.82" y2="167.01" stroke-opacity="0.37"/><line x1="600.82" y1="167.01" x2="648.38" y2="167.8" stroke-opacity="0.37"/><line x1="600.82" y1="167.01" x2="600.71" y2="215.04" stroke-opacity="0.37"/><line x1="600.71" y1="215.04" x2="647.69" y2="215.8" stroke-opacity="0.37"/><line x1="600.71" y1="215.04" x2="599.24" y2="263.14" stroke-opacity="0.37"/><line x1="599.24" y1="263.14" x2="647.86" y2="264.26" stroke-opacity="0.37"/><line x1="599.24" y1="263.14" x2="601.11" y2="310.63" stroke-opacity="0.37"/><line x1="601.11" y1="310.63" x2="648.29" y2="312.33" stroke-opacity="0.37"/><line x1="601.11" y1="310.63" x2="598.63" y2="361.29" stroke-opacity="0.37"/><line x1="598.63" y1="361.29" x2="648.25" y2="360.19" stroke-opacity="0.37"/><line x1="598.63" y1="361.29" x2="601.23" y2="407.95" stroke-opacity="0.37"/><line x1="601.23" y1="407.95" x2="648.33" y2="408.12" stroke-opacity="0.37"/><line x1="601.23" y1="407.95" x2="600.22" y2="456.6" stroke-opacity="0.37"/><line x1="600.22" y1="456.6" x2="648.18" y2="456.17" stroke-opacity="0.37"/><line x1="600.22" y1="456.6" x2="599.04" y2="504.05" stroke-opacity="0.37"/><line x1="599.04" y1="504.05" x2="647.83" y2="503.91" stroke-opacity="0.37"/><line x1="599.04" y1="504.05" x2="598.75" y2="552.28" stroke-opacity="0.37"/><line x1="598.75" y1="552.28" x2="648.14" y2="551.84" stroke-opacity="0.37"/><line x1="648.2" y1="24.31" x2="696" y2="24" stroke-opacity="0.38"/><line x1="648.2" y1="24.31" x2="647.61" y2="72.06" stroke-opacity="0.38"/><line x1="647.61" y1="72.06" x2="696" y2="72" stroke-opacity="0.38"/><line x1="647.61" y1="72.06" x2="647.88" y2="119.6" stroke-opacity="0.38"/><line x1="647.88" y1="119.6" x2="696" y2="120" stroke-opacity="0.38"/><line x1="647.88" y1="119.6" x2="648.38" y2="167.8" stroke-opacity="0.38"/><line x1="648.38" y1="167.8" x2="696" y2="168" stroke-opacity="0.38"/><line x1="648.38" y1="167.8" x2="647.69" y2="215.8" stroke-opacity="0.38"/><line x1="647.69" y1="215.8" x2="696" y2="216" stroke-opacity="0.38"/><line x1="647.69" y1="215.8" x2="647.86" y2="264.26" stroke-opacity="0.38"/><line x1="647.86" y1="264.26" x2="696" y2="264" stroke-opacity="0.38"/><line x1="647.86" y1="264.26" x2="648.29" y2="312.33" stroke-opacity="0.38"/><line x1="648.29" y1="312.33" x2="696" y2="312" stroke-opacity="0.38"/><line x1="648.29" y1="312.33" x2="648.25" y2="360.19" stroke-opacity="0.38"/><line x1="648.25" y1="360.19" x2="696" y2="360" stroke-opacity="0.38"/><line x1="648.25" y1="360.19" x2="648.33" y2="408.12" stroke-opacity="0.38"/><line x1="648.33" y1="408.12" x2="696" y2="408" stroke-opacity="0.38"/><line x1="648.33" y1="408.12" x2="648.18" y2="456.17" stroke-opacity="0.38"/><line x1="648.18" y1="456.17" x2="696" y2="456" stroke-opacity="0.38"/><line x1="648.18" y1="456.17" x2="647.83" y2="503.91" stroke-opacity="0.38"/><line x1="647.83" y1="503.91" x2="696" y2="504" stroke-opacity="0.38"/><line x1="647.83" y1="503.91" x2="648.14" y2="551.84" stroke-opacity="0.38"/><line x1="648.14" y1="551.84" x2="696" y2="552" stroke-opacity="0.38"/><line x1="696" y1="24" x2="696" y2="72" stroke-opacity="0.38"/><line x1="696" y1="72" x2="696" y2="120" stroke-opacity="0.38"/><line x1="696" y1="120" x2="696" y2="168" stroke-opacity="0.38"/><line x1="696" y1="168" x2="696" y2="216" stroke-opacity="0.38"/><line x1="696" y1="216" x2="696" y2="264" stroke-opacity="0.38"/><line x1="696" y1="264" x2="696" y2="312" stroke-opacity="0.38"/><line x1="696" y1="312" x2="696" y2="360" stroke-opacity="0.38"/><line x1="696" y1="360" x2="696" y2="408" stroke-opacity="0.38"/><line x1="696" y1="408" x2="696" y2="456" stroke-opacity="0.38"/><line x1="696" y1="456" x2="696" y2="504" stroke-opacity="0.38"/><line x1="696" y1="504" x2="696" y2="552" stroke-opacity="0.38"/></g><g stroke="#818CF8" stroke-opacity="0.3" stroke-width="1"><line x1="504" y1="556" x2="504" y2="564"/><line x1="552" y1="556" x2="552" y2="564"/><line x1="600" y1="556" x2="600" y2="564"/><line x1="648" y1="556" x2="648" y2="564"/><line x1="696" y1="556" x2="696" y2="564"/></g><g stroke="#F8FAFC" stroke-width="1" stroke-opacity="0.26"><g><line x1="453.31" y1="68.83" x2="461.31" y2="68.83"/><line x1="457.31" y1="64.83" x2="457.31" y2="72.83"/></g><g><line x1="692" y1="456" x2="700" y2="456"/><line x1="696" y1="452" x2="696" y2="460"/></g><g><line x1="496.06" y1="550.87" x2="504.06" y2="550.87"/><line x1="500.06" y1="546.87" x2="500.06" y2="554.87"/></g><g><line x1="644.2" y1="24.31" x2="652.2" y2="24.31"/><line x1="648.2" y1="20.31" x2="648.2" y2="28.31"/></g></g><g><circle cx="-15.06" cy="-11.04" r="1.9" fill="rgb(107 116 132)" fill-opacity="0.42"/><circle cx="62.15" cy="87.92" r="1.9" fill="rgb(107 116 132)" fill-opacity="0.42"/><circle cx="25.72" cy="112.44" r="1.9" fill="rgb(107 116 132)" fill-opacity="0.42"/><circle cx="21.3" cy="147.19" r="1.9" fill="rgb(107 116 132)" fill-opacity="0.42"/><circle cx="28.27" cy="234.39" r="1.9" fill="rgb(107 116 132)" fill-opacity="0.42"/><circle cx="4.63" cy="236.48" r="1.9" fill="rgb(107 116 132)" fill-opacity="0.42"/><circle cx="45.13" cy="313.47" r="1.9" fill="rgb(107 116 132)" fill-opacity="0.42"/><circle cx="-0.23" cy="349.44" r="1.9" fill="rgb(107 116 132)" fill-opacity="0.42"/><circle cx="7.46" cy="410.78" r="1.9" fill="rgb(107 116 132)" fill-opacity="0.42"/><circle cx="7.71" cy="494.24" r="1.9" fill="rgb(107 116 132)" fill-opacity="0.42"/><circle cx="3.8" cy="534.22" r="1.9" fill="rgb(107 116 132)" fill-opacity="0.42"/><circle cx="-0.74" cy="523.49" r="1.9" fill="rgb(107 116 132)" fill-opacity="0.42"/><circle cx="47.64" cy="9.26" r="1.9" fill="rgb(110 119 146)" fill-opacity="0.49"/><circle cx="75.38" cy="90.47" r="1.9" fill="rgb(110 119 146)" fill-opacity="0.49"/><circle cx="41.99" cy="149.12" r="1.9" fill="rgb(110 119 146)" fill-opacity="0.49"/><circle cx="75.79" cy="176.58" r="1.9" fill="rgb(110 119 146)" fill-opacity="0.49"/><circle cx="84.7" cy="248.87" r="1.9" fill="rgb(110 119 146)" fill-opacity="0.49"/><circle cx="80.77" cy="293.71" r="1.9" fill="rgb(110 119 146)" fill-opacity="0.49"/><circle cx="95.11" cy="279.55" r="1.9" fill="rgb(110 119 146)" fill-opacity="0.49"/><circle cx="49.07" cy="349.91" r="1.9" fill="rgb(110 119 146)" fill-opacity="0.49"/><circle cx="66.73" cy="374.16" r="1.9" fill="rgb(110 119 146)" fill-opacity="0.49"/><circle cx="42.95" cy="474.9" r="1.9" fill="rgb(110 119 146)" fill-opacity="0.49"/><circle cx="62.76" cy="498.83" r="1.9" fill="rgb(110 119 146)" fill-opacity="0.49"/><circle cx="69.79" cy="583.47" r="1.9" fill="rgb(110 119 146)" fill-opacity="0.49"/><circle cx="132.51" cy="35.59" r="1.9" fill="rgb(112 122 159)" fill-opacity="0.55"/><circle cx="109.58" cy="63.16" r="1.9" fill="rgb(112 122 159)" fill-opacity="0.55"/><circle cx="97.76" cy="97.43" r="1.9" fill="rgb(112 122 159)" fill-opacity="0.55"/><circle cx="145.43" cy="157.07" r="1.9" fill="rgb(112 122 159)" fill-opacity="0.55"/><circle cx="100.94" cy="224.14" r="1.9" fill="rgb(112 122 159)" fill-opacity="0.55"/><circle cx="109.95" cy="235.91" r="1.9" fill="rgb(112 122 159)" fill-opacity="0.55"/><circle cx="131.34" cy="337.94" r="1.9" fill="rgb(112 122 159)" fill-opacity="0.55"/><circle cx="122.95" cy="380.1" r="1.9" fill="rgb(112 122 159)" fill-opacity="0.55"/><circle cx="129.56" cy="433.85" r="1.9" fill="rgb(112 122 159)" fill-opacity="0.55"/><circle cx="96.43" cy="457.84" r="1.9" fill="rgb(112 122 159)" fill-opacity="0.55"/><circle cx="129.18" cy="528.07" r="1.9" fill="rgb(112 122 159)" fill-opacity="0.55"/><circle cx="148.35" cy="572.8" r="1.9" fill="rgb(112 122 159)" fill-opacity="0.55"/><circle cx="173" cy="48.63" r="1.9" fill="rgb(114 124 171)" fill-opacity="0.6"/><circle cx="192.82" cy="74.58" r="1.9" fill="rgb(114 124 171)" fill-opacity="0.6"/><circle cx="184.91" cy="93.76" r="1.9" fill="rgb(114 124 171)" fill-opacity="0.6"/><circle cx="168.85" cy="158.87" r="1.9" fill="rgb(114 124 171)" fill-opacity="0.6"/><circle cx="179.91" cy="218.63" r="1.9" fill="rgb(114 124 171)" fill-opacity="0.6"/><circle cx="181.56" cy="289.32" r="1.9" fill="rgb(114 124 171)" fill-opacity="0.6"/><circle cx="171.06" cy="329.16" r="1.9" fill="rgb(114 124 171)" fill-opacity="0.6"/><circle cx="164.28" cy="367.56" r="1.9" fill="rgb(114 124 171)" fill-opacity="0.6"/><circle cx="180.67" cy="410.74" r="1.9" fill="rgb(114 124 171)" fill-opacity="0.6"/><circle cx="158.04" cy="442.03" r="1.9" fill="rgb(114 124 171)" fill-opacity="0.6"/><circle cx="141.95" cy="478.73" r="1.9" fill="rgb(114 124 171)" fill-opacity="0.6"/><circle cx="191.54" cy="569.7" r="1.9" fill="rgb(114 124 171)" fill-opacity="0.6"/><circle cx="221.9" cy="2.07" r="1.9" fill="rgb(117 126 183)" fill-opacity="0.66"/><circle cx="221.37" cy="76.28" r="1.9" fill="rgb(117 126 183)" fill-opacity="0.66"/><circle cx="225.79" cy="142.34" r="1.9" fill="rgb(117 126 183)" fill-opacity="0.66"/><circle cx="205.98" cy="189.96" r="1.9" fill="rgb(117 126 183)" fill-opacity="0.66"/><circle cx="222.77" cy="229.77" r="1.9" fill="rgb(117 126 183)" fill-opacity="0.66"/><circle cx="221.62" cy="278.91" r="1.9" fill="rgb(117 126 183)" fill-opacity="0.66"/><circle cx="199.7" cy="334.31" r="1.9" fill="rgb(117 126 183)" fill-opacity="0.66"/><circle cx="216.31" cy="363.02" r="1.9" fill="rgb(117 126 183)" fill-opacity="0.66"/><circle cx="200.69" cy="403.31" r="1.9" fill="rgb(117 126 183)" fill-opacity="0.66"/><circle cx="202.94" cy="470.16" r="1.9" fill="rgb(117 126 183)" fill-opacity="0.66"/><circle cx="232.33" cy="514.65" r="1.9" fill="rgb(117 126 183)" fill-opacity="0.66"/><circle cx="223.15" cy="574.14" r="1.9" fill="rgb(117 126 183)" fill-opacity="0.66"/><circle cx="268.13" cy="32.93" r="1.9" fill="rgb(119 129 193)" fill-opacity="0.71"/><circle cx="281.19" cy="71.59" r="1.9" fill="rgb(119 129 193)" fill-opacity="0.71"/><circle cx="253.8" cy="123.17" r="1.9" fill="rgb(119 129 193)" fill-opacity="0.71"/><circle cx="275.16" cy="181.36" r="1.9" fill="rgb(119 129 193)" fill-opacity="0.71"/><circle cx="252.3" cy="218.07" r="1.9" fill="rgb(119 129 193)" fill-opacity="0.71"/><circle cx="263.16" cy="264.97" r="1.9" fill="rgb(119 129 193)" fill-opacity="0.71"/><circle cx="251.93" cy="302.59" r="1.9" fill="rgb(119 129 193)" fill-opacity="0.71"/><circle cx="261.7" cy="359.15" r="1.9" fill="rgb(119 129 193)" fill-opacity="0.71"/><circle cx="251.58" cy="389.25" r="1.9" fill="rgb(119 129 193)" fill-opacity="0.71"/><circle cx="251.66" cy="438.04" r="1.9" fill="rgb(119 129 193)" fill-opacity="0.71"/><circle cx="249.17" cy="518.2" r="1.9" fill="rgb(119 129 193)" fill-opacity="0.71"/><circle cx="282.22" cy="535.4" r="1.9" fill="rgb(119 129 193)" fill-opacity="0.71"/><circle cx="301.94" cy="21.07" r="1.9" fill="rgb(121 131 203)" fill-opacity="0.76"/><circle cx="311.97" cy="79.18" r="1.9" fill="rgb(121 131 203)" fill-opacity="0.76"/><circle cx="307.93" cy="115.67" r="1.9" fill="rgb(121 131 203)" fill-opacity="0.76"/><circle cx="321.01" cy="174.51" r="1.9" fill="rgb(121 131 203)" fill-opacity="0.76"/><circle cx="321.27" cy="216.93" r="1.9" fill="rgb(121 131 203)" fill-opacity="0.76"/><circle cx="321.22" cy="261.29" r="1.9" fill="rgb(121 131 203)" fill-opacity="0.76"/><circle cx="313.94" cy="305.59" r="1.9" fill="rgb(121 131 203)" fill-opacity="0.76"/><circle cx="312.84" cy="368.54" r="1.9" fill="rgb(121 131 203)" fill-opacity="0.76"/><circle cx="299.02" cy="400.34" r="1.9" fill="rgb(121 131 203)" fill-opacity="0.76"/><circle cx="322.1" cy="466.12" r="1.9" fill="rgb(121 131 203)" fill-opacity="0.76"/><circle cx="320.49" cy="501.83" r="1.9" fill="rgb(121 131 203)" fill-opacity="0.76"/><circle cx="307.58" cy="564.99" r="1.9" fill="rgb(121 131 203)" fill-opacity="0.76"/><circle cx="353.88" cy="20.59" r="1.9" fill="rgb(122 133 212)" fill-opacity="0.8"/><circle cx="359.43" cy="80.13" r="1.9" fill="rgb(122 133 212)" fill-opacity="0.8"/><circle cx="357.64" cy="131.69" r="1.9" fill="rgb(122 133 212)" fill-opacity="0.8"/><circle cx="361.26" cy="166.43" r="1.9" fill="rgb(122 133 212)" fill-opacity="0.8"/><circle cx="356.02" cy="216.91" r="1.9" fill="rgb(122 133 212)" fill-opacity="0.8"/><circle cx="354.91" cy="273.46" r="1.9" fill="rgb(122 133 212)" fill-opacity="0.8"/><circle cx="361.78" cy="323.97" r="1.9" fill="rgb(122 133 212)" fill-opacity="0.8"/><circle cx="368.4" cy="359.89" r="1.9" fill="rgb(122 133 212)" fill-opacity="0.8"/><circle cx="358.44" cy="412.87" r="1.9" fill="rgb(122 133 212)" fill-opacity="0.8"/><circle cx="370.61" cy="457.25" r="1.9" fill="rgb(122 133 212)" fill-opacity="0.8"/><circle cx="363.87" cy="495.69" r="1.9" fill="rgb(122 133 212)" fill-opacity="0.8"/><circle cx="364.76" cy="549.31" r="1.9" fill="rgb(122 133 212)" fill-opacity="0.8"/><circle cx="410.08" cy="30.75" r="1.9" fill="rgb(124 134 221)" fill-opacity="0.84"/><circle cx="405.8" cy="68.12" r="1.9" fill="rgb(124 134 221)" fill-opacity="0.84"/><circle cx="400.24" cy="123.48" r="1.9" fill="rgb(124 134 221)" fill-opacity="0.84"/><circle cx="412.4" cy="176.8" r="1.9" fill="rgb(124 134 221)" fill-opacity="0.84"/><circle cx="404.54" cy="211.45" r="1.9" fill="rgb(124 134 221)" fill-opacity="0.84"/><circle cx="399.8" cy="268.18" r="1.9" fill="rgb(124 134 221)" fill-opacity="0.84"/><circle cx="416.07" cy="317.38" r="1.9" fill="rgb(124 134 221)" fill-opacity="0.84"/><circle cx="414.23" cy="368.77" r="1.9" fill="rgb(124 134 221)" fill-opacity="0.84"/><circle cx="402.82" cy="417.07" r="1.9" fill="rgb(124 134 221)" fill-opacity="0.84"/><circle cx="403.88" cy="456.73" r="1.9" fill="rgb(124 134 221)" fill-opacity="0.84"/><circle cx="405.94" cy="508.05" r="1.9" fill="rgb(124 134 221)" fill-opacity="0.84"/><circle cx="412.93" cy="554.34" r="1.9" fill="rgb(124 134 221)" fill-opacity="0.84"/><circle cx="459.13" cy="25.69" r="1.9" fill="rgb(125 136 228)" fill-opacity="0.87"/><circle cx="457.31" cy="68.83" r="1.9" fill="rgb(125 136 228)" fill-opacity="0.87"/><circle cx="460.61" cy="119.76" r="1.9" fill="rgb(125 136 228)" fill-opacity="0.87"/><circle cx="450.99" cy="171.09" r="1.9" fill="rgb(125 136 228)" fill-opacity="0.87"/><circle cx="455.5" cy="216.83" r="1.9" fill="rgb(125 136 228)" fill-opacity="0.87"/><circle cx="456.71" cy="269.39" r="1.9" fill="rgb(125 136 228)" fill-opacity="0.87"/><circle cx="462.3" cy="307.18" r="1.9" fill="rgb(125 136 228)" fill-opacity="0.87"/><circle cx="450.47" cy="357.04" r="1.9" fill="rgb(125 136 228)" fill-opacity="0.87"/><circle cx="456.33" cy="406.51" r="1.9" fill="rgb(125 136 228)" fill-opacity="0.87"/><circle cx="461.7" cy="460.96" r="1.9" fill="rgb(125 136 228)" fill-opacity="0.87"/><circle cx="456.42" cy="509.67" r="1.9" fill="rgb(125 136 228)" fill-opacity="0.87"/><circle cx="452.93" cy="551.9" r="1.9" fill="rgb(125 136 228)" fill-opacity="0.87"/><circle cx="508.05" cy="25.67" r="1.9" fill="rgb(126 137 234)" fill-opacity="0.9"/><circle cx="506.81" cy="70.42" r="1.9" fill="rgb(126 137 234)" fill-opacity="0.9"/><circle cx="507.89" cy="124.47" r="1.9" fill="rgb(126 137 234)" fill-opacity="0.9"/><circle cx="507.26" cy="163.27" r="1.9" fill="rgb(126 137 234)" fill-opacity="0.9"/><circle cx="500.84" cy="218.4" r="1.9" fill="rgb(126 137 234)" fill-opacity="0.9"/><circle cx="500.24" cy="260.03" r="1.9" fill="rgb(126 137 234)" fill-opacity="0.9"/><circle cx="507.92" cy="309.82" r="1.9" fill="rgb(126 137 234)" fill-opacity="0.9"/><circle cx="504.85" cy="357.74" r="1.9" fill="rgb(126 137 234)" fill-opacity="0.9"/><circle cx="506.8" cy="410.09" r="1.9" fill="rgb(126 137 234)" fill-opacity="0.9"/><circle cx="499.79" cy="455.49" r="1.9" fill="rgb(126 137 234)" fill-opacity="0.9"/><circle cx="508.56" cy="500.03" r="1.9" fill="rgb(126 137 234)" fill-opacity="0.9"/><circle cx="500.06" cy="550.87" r="1.9" fill="rgb(126 137 234)" fill-opacity="0.9"/><circle cx="553.69" cy="25.12" r="1.9" fill="rgb(127 138 240)" fill-opacity="0.93"/><circle cx="550.67" cy="71.99" r="1.9" fill="rgb(127 138 240)" fill-opacity="0.93"/><circle cx="549.7" cy="119.9" r="1.9" fill="rgb(127 138 240)" fill-opacity="0.93"/><circle cx="551.63" cy="168.26" r="1.9" fill="rgb(127 138 240)" fill-opacity="0.93"/><circle cx="550.06" cy="217.59" r="1.9" fill="rgb(127 138 240)" fill-opacity="0.93"/><circle cx="550.85" cy="265.12" r="1.9" fill="rgb(127 138 240)" fill-opacity="0.93"/><circle cx="553.94" cy="309.3" r="1.9" fill="rgb(127 138 240)" fill-opacity="0.93"/><circle cx="550.15" cy="361.27" r="1.9" fill="rgb(127 138 240)" fill-opacity="0.93"/><circle cx="554.29" cy="406.73" r="1.9" fill="rgb(127 138 240)" fill-opacity="0.93"/><circle cx="553.98" cy="456.84" r="1.9" fill="rgb(127 138 240)" fill-opacity="0.93"/><circle cx="550.96" cy="501.64" r="1.9" fill="rgb(127 138 240)" fill-opacity="0.93"/><circle cx="549.71" cy="554.85" r="1.9" fill="rgb(127 138 240)" fill-opacity="0.93"/><circle cx="600.57" cy="23.29" r="1.9" fill="rgb(128 139 244)" fill-opacity="0.95"/><circle cx="600.05" cy="70.74" r="1.9" fill="rgb(128 139 244)" fill-opacity="0.95"/><circle cx="600.05" cy="119.78" r="1.9" fill="rgb(128 139 244)" fill-opacity="0.95"/><circle cx="600.82" cy="167.01" r="1.9" fill="rgb(128 139 244)" fill-opacity="0.95"/><circle cx="600.71" cy="215.04" r="1.9" fill="rgb(128 139 244)" fill-opacity="0.95"/><circle cx="599.24" cy="263.14" r="1.9" fill="rgb(128 139 244)" fill-opacity="0.95"/><circle cx="601.11" cy="310.63" r="1.9" fill="rgb(128 139 244)" fill-opacity="0.95"/><circle cx="598.63" cy="361.29" r="1.9" fill="rgb(128 139 244)" fill-opacity="0.95"/><circle cx="601.23" cy="407.95" r="1.9" fill="rgb(128 139 244)" fill-opacity="0.95"/><circle cx="600.22" cy="456.6" r="1.9" fill="rgb(128 139 244)" fill-opacity="0.95"/><circle cx="599.04" cy="504.05" r="1.9" fill="rgb(128 139 244)" fill-opacity="0.95"/><circle cx="598.75" cy="552.28" r="1.9" fill="rgb(128 139 244)" fill-opacity="0.95"/><circle cx="648.2" cy="24.31" r="1.9" fill="rgb(129 140 247)" fill-opacity="0.96"/><circle cx="647.61" cy="72.06" r="1.9" fill="rgb(129 140 247)" fill-opacity="0.96"/><circle cx="647.88" cy="119.6" r="1.9" fill="rgb(129 140 247)" fill-opacity="0.96"/><circle cx="648.38" cy="167.8" r="1.9" fill="rgb(129 140 247)" fill-opacity="0.96"/><circle cx="647.69" cy="215.8" r="1.9" fill="rgb(129 140 247)" fill-opacity="0.96"/><circle cx="647.86" cy="264.26" r="1.9" fill="rgb(129 140 247)" fill-opacity="0.96"/><circle cx="648.29" cy="312.33" r="1.9" fill="rgb(129 140 247)" fill-opacity="0.96"/><circle cx="648.25" cy="360.19" r="1.9" fill="rgb(129 140 247)" fill-opacity="0.96"/><circle cx="648.33" cy="408.12" r="1.9" fill="rgb(129 140 247)" fill-opacity="0.96"/><circle cx="648.18" cy="456.17" r="1.9" fill="rgb(129 140 247)" fill-opacity="0.96"/><circle cx="647.83" cy="503.91" r="1.9" fill="rgb(129 140 247)" fill-opacity="0.96"/><circle cx="648.14" cy="551.84" r="1.9" fill="rgb(129 140 247)" fill-opacity="0.96"/><circle cx="696" cy="24" r="1.9" fill="rgb(129 140 248)" fill-opacity="0.97"/><circle cx="696" cy="72" r="1.9" fill="rgb(129 140 248)" fill-opacity="0.97"/><circle cx="696" cy="120" r="1.9" fill="rgb(129 140 248)" fill-opacity="0.97"/><circle cx="696" cy="168" r="1.9" fill="rgb(129 140 248)" fill-opacity="0.97"/><circle cx="696" cy="216" r="1.9" fill="rgb(129 140 248)" fill-opacity="0.97"/><circle cx="696" cy="264" r="1.9" fill="rgb(129 140 248)" fill-opacity="0.97"/><circle cx="696" cy="312" r="1.9" fill="rgb(129 140 248)" fill-opacity="0.97"/><circle cx="696" cy="360" r="1.9" fill="rgb(129 140 248)" fill-opacity="0.97"/><circle cx="696" cy="408" r="1.9" fill="rgb(129 140 248)" fill-opacity="0.97"/><circle cx="696" cy="456" r="1.9" fill="rgb(129 140 248)" fill-opacity="0.97"/><circle cx="696" cy="504" r="1.9" fill="rgb(129 140 248)" fill-opacity="0.97"/><circle cx="696" cy="552" r="1.9" fill="rgb(129 140 248)" fill-opacity="0.97"/></g><g><g><circle cx="507.26" cy="163.27" r="6" fill="none" stroke="#6366F1" stroke-width="1" stroke-opacity="0.5"/><circle cx="507.26" cy="163.27" r="2.4" fill="#818CF8"/></g><g><circle cx="598.63" cy="361.29" r="6" fill="none" stroke="#6366F1" stroke-width="1" stroke-opacity="0.5"/><circle cx="598.63" cy="361.29" r="2.4" fill="#818CF8"/></g><g><circle cx="456.33" cy="406.51" r="6" fill="none" stroke="#6366F1" stroke-width="1" stroke-opacity="0.5"/><circle cx="456.33" cy="406.51" r="2.4" fill="#818CF8"/></g><g><circle cx="647.69" cy="215.8" r="6" fill="none" stroke="#6366F1" stroke-width="1" stroke-opacity="0.5"/><circle cx="647.69" cy="215.8" r="2.4" fill="#818CF8"/></g><g><circle cx="550.96" cy="501.64" r="6" fill="none" stroke="#6366F1" stroke-width="1" stroke-opacity="0.5"/><circle cx="550.96" cy="501.64" r="2.4" fill="#818CF8"/></g></g></svg>