<svg xmlns="http://www.w3.org/2000/svg" id="structured-lattice" viewBox="0 0 720 576" preserveAspectRatio="xMidYMid slice" class="h-full w-full" aria-hidden="true" focusable="false"><defs><radialGradient id="structured-lattice-glow"><stop offset="0%" stop-color="#4F46E5" stop-opacity="0.22"></stop><stop offset="100%" stop-color="#4F46E5" stop-opacity="0"></stop></radialGradient></defs><circle cx="540" cy="264" r="250" fill="url(#structured-lattice-glow)"></circle><g class="lattice-drift"><g stroke="#6B7484" stroke-width="1" stroke-opacity="0.16"><line x1="-13.110438760370016" y1="-9.291172424331307" x2="39.126181634142995" y2="73.62984040845186"></line><line x1="28.08201684616506" y1="513.2434873767197" x2="59.41521748714149" y2="561.4529289575294"></line><line x1="59.41521748714149" y1="561.4529289575294" x2="98.20284683427869" y2="582.8551561873606"></line><line x1="67.08967143984596" y1="165.90027605568926" x2="85.62061140190372" y2="228.6166515761924"></line><line x1="84.34570883087797" y1="436.23352275101837" x2="-2.2470537088811398" y2="392.1122921956703"></line><line x1="125.51079626437671" y1="51.126956992159094" x2="168.34962380628363" y2="75.37383730050743"></line><line x1="182.91378452356457" y1="473.8512181150995" x2="166.87546716896998" y2="553.293536834437"></line><line x1="199.1524762704725" y1="232.14120681488578" x2="175.99226721229448" y2="288.72719233285954"></line><line x1="202.03608156864888" y1="307.92668055422666" x2="128.32464635379986" y2="277.9505120851978"></line><line x1="210.34861875201744" y1="401.9955283462745" x2="202.03608156864888" y2="307.92668055422666"></line></g><g stroke="#6366F1" stroke-width="1" stroke-opacity="0.15"><line x1="248.93935632999714" y1="111.11385674745009" x2="264" y2="120"></line><line x1="275.7205229138191" y1="179.73958631032818" x2="264" y2="168"></line><line x1="258.8688880109976" y1="279.0728292745353" x2="264" y2="264"></line><line x1="263.1739582975647" y1="371.84474601801304" x2="264" y2="360"></line><line x1="256.58615009799297" y1="565.777005341346" x2="264" y2="552"></line><line x1="314.12099270461414" y1="38.26661198841449" x2="312" y2="24"></line><line x1="322.00943202726154" y1="71.87190580432595" x2="312" y2="72"></line><line x1="316.61927846710046" y1="206.0900609789096" x2="312" y2="216"></line><line x1="317.67394335591945" y1="260.7947590369259" x2="312" y2="264"></line><line x1="315.220356832607" y1="322.45041873753917" x2="312" y2="312"></line><line x1="299.9806577402251" y1="413.3850870647502" x2="312" y2="408"></line><line x1="318.81360602436496" y1="469.63816603457644" x2="312" y2="456"></line><line x1="306.6407192767179" y1="496.9447159417979" x2="312" y2="504"></line><line x1="369.9692344049035" y1="30.64763216314637" x2="360" y2="24"></line><line x1="353.60261896424606" y1="131.19898433120022" x2="360" y2="120"></line><line x1="362.20330382753707" y1="354.66474296046266" x2="360" y2="360"></line><line x1="351.57481147091846" y1="461.205571505223" x2="360" y2="456"></line><line x1="359.1554678852457" y1="505.3926274160359" x2="360" y2="504"></line><line x1="415.3807049605073" y1="174.43048654827302" x2="408" y2="168"></line><line x1="404.01733663630364" y1="263.8762250291525" x2="408" y2="264"></line><line x1="415.66652808880235" y1="315.16659678180685" x2="408" y2="312"></line><line x1="413.32403367869784" y1="357.0037551187078" x2="408" y2="360"></line><line x1="415.3719346596933" y1="416.4527646371112" x2="408" y2="408"></line><line x1="402.0149222948806" y1="508.54702754774587" x2="408" y2="504"></line><line x1="400.88191196764996" y1="544.4857324850348" x2="408" y2="552"></line></g><g stroke="#4F46E5" stroke-width="1"><line x1="461.4369553028223" y1="20.98027577421821" x2="507.003664560979" y2="19.816610529962993" stroke-opacity="0.3052574779051017"></line><line x1="461.4369553028223" y1="20.98027577421821" x2="457.1790081126975" y2="68.86016171781928" stroke-opacity="0.3052574779051017"></line><line x1="457.1790081126975" y1="68.86016171781928" x2="501.127516094618" y2="73.96211802271532" stroke-opacity="0.3052574779051017"></line><line x1="457.1790081126975" y1="68.86016171781928" x2="459.8802834820096" y2="122.89894702867763" stroke-opacity="0.3052574779051017"></line><line x1="459.8802834820096" y1="122.89894702867763" x2="507.5499134618685" y2="118.02951061497036" stroke-opacity="0.3052574779051017"></line><line x1="459.8802834820096" y1="122.89894702867763" x2="450.1579325337133" y2="167.29584948213636" stroke-opacity="0.3052574779051017"></line><line x1="450.1579325337133" y1="167.29584948213636" x2="507.07031610309326" y2="169.3041665162993" stroke-opacity="0.3052574779051017"></line><line x1="450.1579325337133" y1="167.29584948213636" x2="462.33052753445867" y2="210.48644445009978" stroke-opacity="0.3052574779051017"></line><line x1="462.33052753445867" y1="210.48644445009978" x2="502.39570038118546" y2="212.33903601932124" stroke-opacity="0.3052574779051017"></line><line x1="462.33052753445867" y1="210.48644445009978" x2="450.52706513269175" y2="262.43164504072246" stroke-opacity="0.3052574779051017"></line><line x1="450.52706513269175" y1="262.43164504072246" x2="500.4471155452807" y2="268.41238804469623" stroke-opacity="0.3052574779051017"></line><line x1="450.52706513269175" y1="262.43164504072246" x2="459.81838627869763" y2="314.5257642840481" stroke-opacity="0.3052574779051017"></line><line x1="459.81838627869763" y1="314.5257642840481" x2="505.747535742408" y2="309.81156190470193" stroke-opacity="0.3052574779051017"></line><line x1="459.81838627869763" y1="314.5257642840481" x2="452.98929353798434" y2="359.96751513953933" stroke-opacity="0.3052574779051017"></line><line x1="452.98929353798434" y1="359.96751513953933" x2="504.16206423459914" y2="356.12240991105955" stroke-opacity="0.3052574779051017"></line><line x1="452.98929353798434" y1="359.96751513953933" x2="450.80301791569923" y2="407.77136607102875" stroke-opacity="0.3052574779051017"></line><line x1="450.80301791569923" y1="407.77136607102875" x2="504.14420400552115" y2="407.33583882132547" stroke-opacity="0.3052574779051017"></line><line x1="450.80301791569923" y1="407.77136607102875" x2="455.1702549728676" y2="456.58442327074494" stroke-opacity="0.3052574779051017"></line><line x1="455.1702549728676" y1="456.58442327074494" x2="506.5223873264951" y2="452.9488227589826" stroke-opacity="0.3052574779051017"></line><line x1="455.1702549728676" y1="456.58442327074494" x2="451.61694661819774" y2="507.5945951626919" stroke-opacity="0.3052574779051017"></line><line x1="451.61694661819774" y1="507.5945951626919" x2="506.1786767544605" y2="501.02280127797434" stroke-opacity="0.3052574779051017"></line><line x1="451.61694661819774" y1="507.5945951626919" x2="453.40189374298836" y2="554.532772547199" stroke-opacity="0.3052574779051017"></line><line x1="453.40189374298836" y1="554.532772547199" x2="501.64090571180225" y2="549.3315299946355" stroke-opacity="0.3052574779051017"></line><line x1="507.003664560979" y1="19.816610529962993" x2="554.1073333701385" y2="21.400693329229732" stroke-opacity="0.3162253397025129"></line><line x1="507.003664560979" y1="19.816610529962993" x2="501.127516094618" y2="73.96211802271532" stroke-opacity="0.3162253397025129"></line><line x1="501.127516094618" y1="73.96211802271532" x2="549.4153043645306" y2="74.4390673478753" stroke-opacity="0.3162253397025129"></line><line x1="501.127516094618" y1="73.96211802271532" x2="507.5499134618685" y2="118.02951061497036" stroke-opacity="0.3162253397025129"></line><line x1="507.5499134618685" y1="118.02951061497036" x2="554.3327496925882" y2="119.90991692798634" stroke-opacity="0.3162253397025129"></line><line x1="507.5499134618685" y1="118.02951061497036" x2="507.07031610309326" y2="169.3041665162993" stroke-opacity="0.3162253397025129"></line><line x1="507.07031610309326" y1="169.3041665162993" x2="552.419106729875" y2="169.13609731704892" stroke-opacity="0.3162253397025129"></line><line x1="507.07031610309326" y1="169.3041665162993" x2="502.39570038118546" y2="212.33903601932124" stroke-opacity="0.3162253397025129"></line><line x1="502.39570038118546" y1="212.33903601932124" x2="550.1755918490755" y2="216.1001599862931" stroke-opacity="0.3162253397025129"></line><line x1="502.39570038118546" y1="212.33903601932124" x2="500.4471155452807" y2="268.41238804469623" stroke-opacity="0.3162253397025129"></line><line x1="500.4471155452807" y1="268.41238804469623" x2="549.6427197902691" y2="264.5277868120352" stroke-opacity="0.3162253397025129"></line><line x1="500.4471155452807" y1="268.41238804469623" x2="505.747535742408" y2="309.81156190470193" stroke-opacity="0.3162253397025129"></line><line x1="505.747535742408" y1="309.81156190470193" x2="553.2270607280782" y2="313.91236021480904" stroke-opacity="0.3162253397025129"></line><line x1="505.747535742408" y1="309.81156190470193" x2="504.16206423459914" y2="356.12240991105955" stroke-opacity="0.3162253397025129"></line><line x1="504.16206423459914" y1="356.12240991105955" x2="549.6164619418173" y2="360.38876047888255" stroke-opacity="0.3162253397025129"></line><line x1="504.16206423459914" y1="356.12240991105955" x2="504.14420400552115" y2="407.33583882132547" stroke-opacity="0.3162253397025129"></line><line x1="504.14420400552115" y1="407.33583882132547" x2="551.2820338615861" y2="405.53912968092317" stroke-opacity="0.3162253397025129"></line><line x1="504.14420400552115" y1="407.33583882132547" x2="506.5223873264951" y2="452.9488227589826" stroke-opacity="0.3162253397025129"></line><line x1="506.5223873264951" y1="452.9488227589826" x2="554.3291870171859" y2="454.7413933618657" stroke-opacity="0.3162253397025129"></line><line x1="506.5223873264951" y1="452.9488227589826" x2="506.1786767544605" y2="501.02280127797434" stroke-opacity="0.3162253397025129"></line><line x1="506.1786767544605" y1="501.02280127797434" x2="550.0899809448706" y2="502.8006633274884" stroke-opacity="0.3162253397025129"></line><line x1="506.1786767544605" y1="501.02280127797434" x2="501.64090571180225" y2="549.3315299946355" stroke-opacity="0.3162253397025129"></line><line x1="501.64090571180225" y1="549.3315299946355" x2="551.1555960701444" y2="553.6248614100508" stroke-opacity="0.3162253397025129"></line><line x1="554.1073333701385" y1="21.400693329229732" x2="600.8998555201634" y2="25.01781101788267" stroke-opacity="0.3254213111152346"></line><line x1="554.1073333701385" y1="21.400693329229732" x2="549.4153043645306" y2="74.4390673478753" stroke-opacity="0.3254213111152346"></line><line x1="549.4153043645306" y1="74.4390673478753" x2="600.7607001530629" y2="72.57754098359196" stroke-opacity="0.3254213111152346"></line><line x1="549.4153043645306" y1="74.4390673478753" x2="554.3327496925882" y2="119.90991692798634" stroke-opacity="0.3254213111152346"></line><line x1="554.3327496925882" y1="119.90991692798634" x2="601.0142823756303" y2="120.38263095999311" stroke-opacity="0.3254213111152346"></line><line x1="554.3327496925882" y1="119.90991692798634" x2="552.419106729875" y2="169.13609731704892" stroke-opacity="0.3254213111152346"></line><line x1="552.419106729875" y1="169.13609731704892" x2="600.5618537865217" y2="168.52289007767232" stroke-opacity="0.3254213111152346"></line><line x1="552.419106729875" y1="169.13609731704892" x2="550.1755918490755" y2="216.1001599862931" stroke-opacity="0.3254213111152346"></line><line x1="550.1755918490755" y1="216.1001599862931" x2="599.4679546790749" y2="215.73118441630263" stroke-opacity="0.3254213111152346"></line><line x1="550.1755918490755" y1="216.1001599862931" x2="549.6427197902691" y2="264.5277868120352" stroke-opacity="0.3254213111152346"></line><line x1="549.6427197902691" y1="264.5277868120352" x2="600.4445681310723" y2="263.52001267710386" stroke-opacity="0.3254213111152346"></line><line x1="549.6427197902691" y1="264.5277868120352" x2="553.2270607280782" y2="313.91236021480904" stroke-opacity="0.3254213111152346"></line><line x1="553.2270607280782" y1="313.91236021480904" x2="599.2818416953487" y2="311.9902977620442" stroke-opacity="0.3254213111152346"></line><line x1="553.2270607280782" y1="313.91236021480904" x2="549.6164619418173" y2="360.38876047888255" stroke-opacity="0.3254213111152346"></line><line x1="549.6164619418173" y1="360.38876047888255" x2="600.2730967387553" y2="360.487088602276" stroke-opacity="0.3254213111152346"></line><line x1="549.6164619418173" y1="360.38876047888255" x2="551.2820338615861" y2="405.53912968092317" stroke-opacity="0.3254213111152346"></line><line x1="551.2820338615861" y1="405.53912968092317" x2="599.7956854124549" y2="408.5872203345532" stroke-opacity="0.3254213111152346"></line><line x1="551.2820338615861" y1="405.53912968092317" x2="554.3291870171859" y2="454.7413933618657" stroke-opacity="0.3254213111152346"></line><line x1="554.3291870171859" y1="454.7413933618657" x2="599.2814752859019" y2="456.66156840201194" stroke-opacity="0.3254213111152346"></line><line x1="554.3291870171859" y1="454.7413933618657" x2="550.0899809448706" y2="502.8006633274884" stroke-opacity="0.3254213111152346"></line><line x1="550.0899809448706" y1="502.8006633274884" x2="600.0542344430282" y2="503.8335866891606" stroke-opacity="0.3254213111152346"></line><line x1="550.0899809448706" y1="502.8006633274884" x2="551.1555960701444" y2="553.6248614100508" stroke-opacity="0.3254213111152346"></line><line x1="551.1555960701444" y1="553.6248614100508" x2="599.6988474955599" y2="552.8773917423878" stroke-opacity="0.3254213111152346"></line><line x1="600.8998555201634" y1="25.01781101788267" x2="647.6787567783801" y2="24.04612678938452" stroke-opacity="0.33268248994889393"></line><line x1="600.8998555201634" y1="25.01781101788267" x2="600.7607001530629" y2="72.57754098359196" stroke-opacity="0.33268248994889393"></line><line x1="600.7607001530629" y1="72.57754098359196" x2="648.0344270189748" y2="72.13650165836624" stroke-opacity="0.33268248994889393"></line><line x1="600.7607001530629" y1="72.57754098359196" x2="601.0142823756303" y2="120.38263095999311" stroke-opacity="0.33268248994889393"></line><line x1="601.0142823756303" y1="120.38263095999311" x2="648.1087073767336" y2="119.6386102699494" stroke-opacity="0.33268248994889393"></line><line x1="601.0142823756303" y1="120.38263095999311" x2="600.5618537865217" y2="168.52289007767232" stroke-opacity="0.33268248994889393"></line><line x1="600.5618537865217" y1="168.52289007767232" x2="647.9305223996219" y2="168.38106079527142" stroke-opacity="0.33268248994889393"></line><line x1="600.5618537865217" y1="168.52289007767232" x2="599.4679546790749" y2="215.73118441630263" stroke-opacity="0.33268248994889393"></line><line x1="599.4679546790749" y1="215.73118441630263" x2="648.1817154316124" y2="216.01013328500704" stroke-opacity="0.33268248994889393"></line><line x1="599.4679546790749" y1="215.73118441630263" x2="600.4445681310723" y2="263.52001267710386" stroke-opacity="0.33268248994889393"></line><line x1="600.4445681310723" y1="263.52001267710386" x2="648.1671088823143" y2="263.8428219494913" stroke-opacity="0.33268248994889393"></line><line x1="600.4445681310723" y1="263.52001267710386" x2="599.2818416953487" y2="311.9902977620442" stroke-opacity="0.33268248994889393"></line><line x1="599.2818416953487" y1="311.9902977620442" x2="648.4070820551134" y2="311.62599744494275" stroke-opacity="0.33268248994889393"></line><line x1="599.2818416953487" y1="311.9902977620442" x2="600.2730967387553" y2="360.487088602276" stroke-opacity="0.33268248994889393"></line><line x1="600.2730967387553" y1="360.487088602276" x2="648.224784130465" y2="359.95427461389903" stroke-opacity="0.33268248994889393"></line><line x1="600.2730967387553" y1="360.487088602276" x2="599.7956854124549" y2="408.5872203345532" stroke-opacity="0.33268248994889393"></line><line x1="599.7956854124549" y1="408.5872203345532" x2="647.7642253397244" y2="407.9933361488599" stroke-opacity="0.33268248994889393"></line><line x1="599.7956854124549" y1="408.5872203345532" x2="599.2814752859019" y2="456.66156840201194" stroke-opacity="0.33268248994889393"></line><line x1="599.2814752859019" y1="456.66156840201194" x2="647.7650173238843" y2="456.30367269115993" stroke-opacity="0.33268248994889393"></line><line x1="599.2814752859019" y1="456.66156840201194" x2="600.0542344430282" y2="503.8335866891606" stroke-opacity="0.33268248994889393"></line><line x1="600.0542344430282" y1="503.8335866891606" x2="648.4276586051644" y2="504.029587625302" stroke-opacity="0.33268248994889393"></line><line x1="600.0542344430282" y1="503.8335866891606" x2="599.6988474955599" y2="552.8773917423878" stroke-opacity="0.33268248994889393"></line><line x1="599.6988474955599" y1="552.8773917423878" x2="648.3806453029916" y2="551.7145729302636" stroke-opacity="0.33268248994889393"></line><line x1="647.6787567783801" y1="24.04612678938452" x2="696" y2="24" stroke-opacity="0.3377477720952464"></line><line x1="647.6787567783801" y1="24.04612678938452" x2="648.0344270189748" y2="72.13650165836624" stroke-opacity="0.3377477720952464"></line><line x1="648.0344270189748" y1="72.13650165836624" x2="696" y2="72" stroke-opacity="0.3377477720952464"></line><line x1="648.0344270189748" y1="72.13650165836624" x2="648.1087073767336" y2="119.6386102699494" stroke-opacity="0.3377477720952464"></line><line x1="648.1087073767336" y1="119.6386102699494" x2="696" y2="120" stroke-opacity="0.3377477720952464"></line><line x1="648.1087073767336" y1="119.6386102699494" x2="647.9305223996219" y2="168.38106079527142" stroke-opacity="0.3377477720952464"></line><line x1="647.9305223996219" y1="168.38106079527142" x2="696" y2="168" stroke-opacity="0.3377477720952464"></line><line x1="647.9305223996219" y1="168.38106079527142" x2="648.1817154316124" y2="216.01013328500704" stroke-opacity="0.3377477720952464"></line><line x1="648.1817154316124" y1="216.01013328500704" x2="696" y2="216" stroke-opacity="0.3377477720952464"></line><line x1="648.1817154316124" y1="216.01013328500704" x2="648.1671088823143" y2="263.8428219494913" stroke-opacity="0.3377477720952464"></line><line x1="648.1671088823143" y1="263.8428219494913" x2="696" y2="264" stroke-opacity="0.3377477720952464"></line><line x1="648.1671088823143" y1="263.8428219494913" x2="648.4070820551134" y2="311.62599744494275" stroke-opacity="0.3377477720952464"></line><line x1="648.4070820551134" y1="311.62599744494275" x2="696" y2="312" stroke-opacity="0.3377477720952464"></line><line x1="648.4070820551134" y1="311.62599744494275" x2="648.224784130465" y2="359.95427461389903" stroke-opacity="0.3377477720952464"></line><line x1="648.224784130465" y1="359.95427461389903" x2="696" y2="360" stroke-opacity="0.3377477720952464"></line><line x1="648.224784130465" y1="359.95427461389903" x2="647.7642253397244" y2="407.9933361488599" stroke-opacity="0.3377477720952464"></line><line x1="647.7642253397244" y1="407.9933361488599" x2="696" y2="408" stroke-opacity="0.3377477720952464"></line><line x1="647.7642253397244" y1="407.9933361488599" x2="647.7650173238843" y2="456.30367269115993" stroke-opacity="0.3377477720952464"></line><line x1="647.7650173238843" y1="456.30367269115993" x2="696" y2="456" stroke-opacity="0.3377477720952464"></line><line x1="647.7650173238843" y1="456.30367269115993" x2="648.4276586051644" y2="504.029587625302" stroke-opacity="0.3377477720952464"></line><line x1="648.4276586051644" y1="504.029587625302" x2="696" y2="504" stroke-opacity="0.3377477720952464"></line><line x1="648.4276586051644" y1="504.029587625302" x2="648.3806453029916" y2="551.7145729302636" stroke-opacity="0.3377477720952464"></line><line x1="648.3806453029916" y1="551.7145729302636" x2="696" y2="552" stroke-opacity="0.3377477720952464"></line><line x1="696" y1="24" x2="696" y2="72" stroke-opacity="0.34"></line><line x1="696" y1="72" x2="696" y2="120" stroke-opacity="0.34"></line><line x1="696" y1="120" x2="696" y2="168" stroke-opacity="0.34"></line><line x1="696" y1="168" x2="696" y2="216" stroke-opacity="0.34"></line><line x1="696" y1="216" x2="696" y2="264" stroke-opacity="0.34"></line><line x1="696" y1="264" x2="696" y2="312" stroke-opacity="0.34"></line><line x1="696" y1="312" x2="696" y2="360" stroke-opacity="0.34"></line><line x1="696" y1="360" x2="696" y2="408" stroke-opacity="0.34"></line><line x1="696" y1="408" x2="696" y2="456" stroke-opacity="0.34"></line><line x1="696" y1="456" x2="696" y2="504" stroke-opacity="0.34"></line><line x1="696" y1="504" x2="696" y2="552" stroke-opacity="0.34"></line></g><g stroke="#F8FAFC" stroke-width="1" stroke-opacity="0.28"><g><line x1="453.1790081126975" y1="68.86016171781928" x2="461.1790081126975" y2="68.86016171781928"></line><line x1="457.1790081126975" y1="64.86016171781928" x2="457.1790081126975" y2="72.86016171781928"></line></g><g><line x1="692" y1="456" x2="700" y2="456"></line><line x1="696" y1="452" x2="696" y2="460"></line></g><g><line x1="497.64090571180225" y1="549.3315299946355" x2="505.64090571180225" y2="549.3315299946355"></line><line x1="501.64090571180225" y1="545.3315299946355" x2="501.64090571180225" y2="553.3315299946355"></line></g><g><line x1="643.6787567783801" y1="24.04612678938452" x2="651.6787567783801" y2="24.04612678938452"></line><line x1="647.6787567783801" y1="20.04612678938452" x2="647.6787567783801" y2="28.04612678938452"></line></g></g><g><circle cx="-13.110438760370016" cy="-9.291172424331307" r="1.8" fill="rgb(107 116 132)" fill-opacity="0.4"></circle><circle cx="39.126181634142995" cy="73.62984040845186" r="1.8" fill="rgb(107 116 132)" fill-opacity="0.4"></circle><circle cx="21.433680071495473" cy="100.23431412968785" r="1.8" fill="rgb(107 116 132)" fill-opacity="0.4"></circle><circle cx="13.964853099547327" cy="248.28679768182337" r="1.8" fill="rgb(107 116 132)" fill-opacity="0.4"></circle><circle cx="-2.2470537088811398" cy="392.1122921956703" r="1.8" fill="rgb(107 116 132)" fill-opacity="0.4"></circle><circle cx="43.90240082517266" cy="423.6633748486638" r="1.8" fill="rgb(107 116 132)" fill-opacity="0.4"></circle><circle cx="28.08201684616506" cy="513.2434873767197" r="1.8" fill="rgb(107 116 132)" fill-opacity="0.4"></circle><circle cx="59.41521748714149" cy="561.4529289575294" r="1.8" fill="rgb(107 116 132)" fill-opacity="0.4"></circle><circle cx="44.40154005206054" cy="137.95808893414736" r="1.8" fill="rgb(110 119 146)" fill-opacity="0.4651038590836558"></circle><circle cx="67.08967143984596" cy="165.90027605568926" r="1.8" fill="rgb(110 119 146)" fill-opacity="0.4651038590836558"></circle><circle cx="85.62061140190372" cy="228.6166515761924" r="1.8" fill="rgb(110 119 146)" fill-opacity="0.4651038590836558"></circle><circle cx="84.34570883087797" cy="436.23352275101837" r="1.8" fill="rgb(110 119 146)" fill-opacity="0.4651038590836558"></circle><circle cx="93.88194505265565" cy="466.40196823014423" r="1.8" fill="rgb(110 119 146)" fill-opacity="0.4651038590836558"></circle><circle cx="46.34030654383973" cy="506.0053636269362" r="1.8" fill="rgb(110 119 146)" fill-opacity="0.4651038590836558"></circle><circle cx="98.20284683427869" cy="582.8551561873606" r="1.8" fill="rgb(110 119 146)" fill-opacity="0.4651038590836558"></circle><circle cx="125.51079626437671" cy="51.126956992159094" r="1.8" fill="rgb(112 122 159)" fill-opacity="0.5267927031328136"></circle><circle cx="120.93997059206562" cy="109.9448131061011" r="1.8" fill="rgb(112 122 159)" fill-opacity="0.5267927031328136"></circle><circle cx="122.89445147224122" cy="182.93663433002004" r="1.8" fill="rgb(112 122 159)" fill-opacity="0.5267927031328136"></circle><circle cx="123.36569269943854" cy="234.8982225614804" r="1.8" fill="rgb(112 122 159)" fill-opacity="0.5267927031328136"></circle><circle cx="128.32464635379986" cy="277.9505120851978" r="1.8" fill="rgb(112 122 159)" fill-opacity="0.5267927031328136"></circle><circle cx="92.16799011203972" cy="385.929653286157" r="1.8" fill="rgb(112 122 159)" fill-opacity="0.5267927031328136"></circle><circle cx="127.63751193394235" cy="379.6023997460868" r="1.8" fill="rgb(112 122 159)" fill-opacity="0.5267927031328136"></circle><circle cx="125.54951295114583" cy="468.68127675495026" r="1.8" fill="rgb(112 122 159)" fill-opacity="0.5267927031328136"></circle><circle cx="107.01738724728997" cy="532.43716104058" r="1.8" fill="rgb(112 122 159)" fill-opacity="0.5267927031328136"></circle><circle cx="137.8314358789214" cy="559.2747929464184" r="1.8" fill="rgb(112 122 159)" fill-opacity="0.5267927031328136"></circle><circle cx="149.7948816466806" cy="48.92671365768017" r="1.8" fill="rgb(114 124 171)" fill-opacity="0.5849834183831775"></circle><circle cx="168.34962380628363" cy="75.37383730050743" r="1.8" fill="rgb(114 124 171)" fill-opacity="0.5849834183831775"></circle><circle cx="150.89535664151228" cy="114.76276668308657" r="1.8" fill="rgb(114 124 171)" fill-opacity="0.5849834183831775"></circle><circle cx="153.4065357160049" cy="183.81464782607736" r="1.8" fill="rgb(114 124 171)" fill-opacity="0.5849834183831775"></circle><circle cx="186.2369688859879" cy="227.89945216038524" r="1.8" fill="rgb(114 124 171)" fill-opacity="0.5849834183831775"></circle><circle cx="175.99226721229448" cy="288.72719233285954" r="1.8" fill="rgb(114 124 171)" fill-opacity="0.5849834183831775"></circle><circle cx="173.51344769960758" cy="323.9264790650706" r="1.8" fill="rgb(114 124 171)" fill-opacity="0.5849834183831775"></circle><circle cx="190.96918946935412" cy="359.4562608534572" r="1.8" fill="rgb(114 124 171)" fill-opacity="0.5849834183831775"></circle><circle cx="154.3701313019963" cy="412.237235588771" r="1.8" fill="rgb(114 124 171)" fill-opacity="0.5849834183831775"></circle><circle cx="182.91378452356457" cy="473.8512181150995" r="1.8" fill="rgb(114 124 171)" fill-opacity="0.5849834183831775"></circle><circle cx="152.35997064716665" cy="506.768879370478" r="1.8" fill="rgb(114 124 171)" fill-opacity="0.5849834183831775"></circle><circle cx="166.87546716896998" cy="553.293536834437" r="1.8" fill="rgb(114 124 171)" fill-opacity="0.5849834183831775"></circle><circle cx="202.28277082559097" cy="13.303644345765473" r="1.8" fill="rgb(117 126 183)" fill-opacity="0.6395833349025533"></circle><circle cx="213.38193069046568" cy="71.03540170052406" r="1.8" fill="rgb(117 126 183)" fill-opacity="0.6395833349025533"></circle><circle cx="201.8810686730034" cy="98.69076433833858" r="1.8" fill="rgb(117 126 183)" fill-opacity="0.6395833349025533"></circle><circle cx="201.9802347526143" cy="147.5870074244328" r="1.8" fill="rgb(117 126 183)" fill-opacity="0.6395833349025533"></circle><circle cx="199.1524762704725" cy="232.14120681488578" r="1.8" fill="rgb(117 126 183)" fill-opacity="0.6395833349025533"></circle><circle cx="236.70986993113803" cy="245.13180418921402" r="1.8" fill="rgb(117 126 183)" fill-opacity="0.6395833349025533"></circle><circle cx="202.03608156864888" cy="307.92668055422666" r="1.8" fill="rgb(117 126 183)" fill-opacity="0.6395833349025533"></circle><circle cx="215.95691516182546" cy="369.9657338598793" r="1.8" fill="rgb(117 126 183)" fill-opacity="0.6395833349025533"></circle><circle cx="210.34861875201744" cy="401.9955283462745" r="1.8" fill="rgb(117 126 183)" fill-opacity="0.6395833349025533"></circle><circle cx="228.5046970451135" cy="465.0392200956682" r="1.8" fill="rgb(117 126 183)" fill-opacity="0.6395833349025533"></circle><circle cx="228.8730820479846" cy="505.2863818035081" r="1.8" fill="rgb(117 126 183)" fill-opacity="0.6395833349025533"></circle><circle cx="228.79618822914892" cy="548.2324327084225" r="1.8" fill="rgb(117 126 183)" fill-opacity="0.6395833349025533"></circle><circle cx="266.24613483612023" cy="16.564327060091912" r="1.8" fill="rgb(119 129 193)" fill-opacity="0.6904880895210355"></circle><circle cx="264.9774974680449" cy="81.9146491881649" r="1.8" fill="rgb(119 129 193)" fill-opacity="0.6904880895210355"></circle><circle cx="248.93935632999714" cy="111.11385674745009" r="1.8" fill="rgb(119 129 193)" fill-opacity="0.6904880895210355"></circle><circle cx="275.7205229138191" cy="179.73958631032818" r="1.8" fill="rgb(119 129 193)" fill-opacity="0.6904880895210355"></circle><circle cx="273.84964554608285" cy="213.48371021905265" r="1.8" fill="rgb(119 129 193)" fill-opacity="0.6904880895210355"></circle><circle cx="258.8688880109976" cy="279.0728292745353" r="1.8" fill="rgb(119 129 193)" fill-opacity="0.6904880895210355"></circle><circle cx="255.0828111011495" cy="307.0301963455321" r="1.8" fill="rgb(119 129 193)" fill-opacity="0.6904880895210355"></circle><circle cx="263.1739582975647" cy="371.84474601801304" r="1.8" fill="rgb(119 129 193)" fill-opacity="0.6904880895210355"></circle><circle cx="260.55882557192996" cy="425.0178660485235" r="1.8" fill="rgb(119 129 193)" fill-opacity="0.6904880895210355"></circle><circle cx="265.83894251617767" cy="453.71624983024407" r="1.8" fill="rgb(119 129 193)" fill-opacity="0.6904880895210355"></circle><circle cx="258.2107740586646" cy="505.3282709037224" r="1.8" fill="rgb(119 129 193)" fill-opacity="0.6904880895210355"></circle><circle cx="256.58615009799297" cy="565.777005341346" r="1.8" fill="rgb(119 129 193)" fill-opacity="0.6904880895210355"></circle><circle cx="314.12099270461414" cy="38.26661198841449" r="1.8" fill="rgb(121 131 203)" fill-opacity="0.7375787272089172"></circle><circle cx="322.00943202726154" cy="71.87190580432595" r="1.8" fill="rgb(121 131 203)" fill-opacity="0.7375787272089172"></circle><circle cx="310.14509945093346" cy="125.80220840713015" r="1.8" fill="rgb(121 131 203)" fill-opacity="0.7375787272089172"></circle><circle cx="324.65296862866137" cy="169.4868522450862" r="1.8" fill="rgb(121 131 203)" fill-opacity="0.7375787272089172"></circle><circle cx="316.61927846710046" cy="206.0900609789096" r="1.8" fill="rgb(121 131 203)" fill-opacity="0.7375787272089172"></circle><circle cx="317.67394335591945" cy="260.7947590369259" r="1.8" fill="rgb(121 131 203)" fill-opacity="0.7375787272089172"></circle><circle cx="315.220356832607" cy="322.45041873753917" r="1.8" fill="rgb(121 131 203)" fill-opacity="0.7375787272089172"></circle><circle cx="308.58974452365635" cy="353.9939415079223" r="1.8" fill="rgb(121 131 203)" fill-opacity="0.7375787272089172"></circle><circle cx="299.9806577402251" cy="413.3850870647502" r="1.8" fill="rgb(121 131 203)" fill-opacity="0.7375787272089172"></circle><circle cx="318.81360602436496" cy="469.63816603457644" r="1.8" fill="rgb(121 131 203)" fill-opacity="0.7375787272089172"></circle><circle cx="306.6407192767179" cy="496.9447159417979" r="1.8" fill="rgb(121 131 203)" fill-opacity="0.7375787272089172"></circle><circle cx="299.3021648714285" cy="558.4680882964875" r="1.8" fill="rgb(121 131 203)" fill-opacity="0.7375787272089172"></circle><circle cx="369.9692344049035" cy="30.64763216314637" r="1.8" fill="rgb(122 133 212)" fill-opacity="0.7807176431650741"></circle><circle cx="367.6907751859463" cy="82.82426111074383" r="1.8" fill="rgb(122 133 212)" fill-opacity="0.7807176431650741"></circle><circle cx="353.60261896424606" cy="131.19898433120022" r="1.8" fill="rgb(122 133 212)" fill-opacity="0.7807176431650741"></circle><circle cx="354.91445439073857" cy="168.89896999707616" r="1.8" fill="rgb(122 133 212)" fill-opacity="0.7807176431650741"></circle><circle cx="357.45251213276845" cy="220.99548305520037" r="1.8" fill="rgb(122 133 212)" fill-opacity="0.7807176431650741"></circle><circle cx="366.0842524384455" cy="266.8942529536233" r="1.8" fill="rgb(122 133 212)" fill-opacity="0.7807176431650741"></circle><circle cx="365.2753987995741" cy="314.84218478464646" r="1.8" fill="rgb(122 133 212)" fill-opacity="0.7807176431650741"></circle><circle cx="362.20330382753707" cy="354.66474296046266" r="1.8" fill="rgb(122 133 212)" fill-opacity="0.7807176431650741"></circle><circle cx="367.76477586059985" cy="407.5929514635114" r="1.8" fill="rgb(122 133 212)" fill-opacity="0.7807176431650741"></circle><circle cx="351.57481147091846" cy="461.205571505223" r="1.8" fill="rgb(122 133 212)" fill-opacity="0.7807176431650741"></circle><circle cx="359.1554678852457" cy="505.3926274160359" r="1.8" fill="rgb(122 133 212)" fill-opacity="0.7807176431650741"></circle><circle cx="361.20004189674034" cy="561.0766767300107" r="1.8" fill="rgb(122 133 212)" fill-opacity="0.7807176431650741"></circle><circle cx="416.1542314456982" cy="17.75959527599257" r="1.8" fill="rgb(124 134 221)" fill-opacity="0.81974267519379"></circle><circle cx="400.83187873058597" cy="68.16459318238603" r="1.8" fill="rgb(124 134 221)" fill-opacity="0.81974267519379"></circle><circle cx="408.4295900084999" cy="118.069704682473" r="1.8" fill="rgb(124 134 221)" fill-opacity="0.81974267519379"></circle><circle cx="415.3807049605073" cy="174.43048654827302" r="1.8" fill="rgb(124 134 221)" fill-opacity="0.81974267519379"></circle><circle cx="408.54202095858994" cy="223.34293638798127" r="1.8" fill="rgb(124 134 221)" fill-opacity="0.81974267519379"></circle><circle cx="404.01733663630364" cy="263.8762250291525" r="1.8" fill="rgb(124 134 221)" fill-opacity="0.81974267519379"></circle><circle cx="415.66652808880235" cy="315.16659678180685" r="1.8" fill="rgb(124 134 221)" fill-opacity="0.81974267519379"></circle><circle cx="413.32403367869784" cy="357.0037551187078" r="1.8" fill="rgb(124 134 221)" fill-opacity="0.81974267519379"></circle><circle cx="415.3719346596933" cy="416.4527646371112" r="1.8" fill="rgb(124 134 221)" fill-opacity="0.81974267519379"></circle><circle cx="414.1699661042457" cy="447.04856926093686" r="1.8" fill="rgb(124 134 221)" fill-opacity="0.81974267519379"></circle><circle cx="402.0149222948806" cy="508.54702754774587" r="1.8" fill="rgb(124 134 221)" fill-opacity="0.81974267519379"></circle><circle cx="400.88191196764996" cy="544.4857324850348" r="1.8" fill="rgb(124 134 221)" fill-opacity="0.81974267519379"></circle><circle cx="461.4369553028223" cy="20.98027577421821" r="1.8" fill="rgb(125 136 228)" fill-opacity="0.8544580642390298"></circle><circle cx="457.1790081126975" cy="68.86016171781928" r="1.8" fill="rgb(125 136 228)" fill-opacity="0.8544580642390298"></circle><circle cx="459.8802834820096" cy="122.89894702867763" r="1.8" fill="rgb(125 136 228)" fill-opacity="0.8544580642390298"></circle><circle cx="450.1579325337133" cy="167.29584948213636" r="1.8" fill="rgb(125 136 228)" fill-opacity="0.8544580642390298"></circle><circle cx="462.33052753445867" cy="210.48644445009978" r="1.8" fill="rgb(125 136 228)" fill-opacity="0.8544580642390298"></circle><circle cx="450.52706513269175" cy="262.43164504072246" r="1.8" fill="rgb(125 136 228)" fill-opacity="0.8544580642390298"></circle><circle cx="459.81838627869763" cy="314.5257642840481" r="1.8" fill="rgb(125 136 228)" fill-opacity="0.8544580642390298"></circle><circle cx="452.98929353798434" cy="359.96751513953933" r="1.8" fill="rgb(125 136 228)" fill-opacity="0.8544580642390298"></circle><circle cx="450.80301791569923" cy="407.77136607102875" r="1.8" fill="rgb(125 136 228)" fill-opacity="0.8544580642390298"></circle><circle cx="455.1702549728676" cy="456.58442327074494" r="1.8" fill="rgb(125 136 228)" fill-opacity="0.8544580642390298"></circle><circle cx="451.61694661819774" cy="507.5945951626919" r="1.8" fill="rgb(125 136 228)" fill-opacity="0.8544580642390298"></circle><circle cx="453.40189374298836" cy="554.532772547199" r="1.8" fill="rgb(125 136 228)" fill-opacity="0.8544580642390298"></circle><circle cx="507.003664560979" cy="19.816610529962993" r="1.8" fill="rgb(126 137 234)" fill-opacity="0.8846196841819105"></circle><circle cx="501.127516094618" cy="73.96211802271532" r="1.8" fill="rgb(126 137 234)" fill-opacity="0.8846196841819105"></circle><circle cx="507.5499134618685" cy="118.02951061497036" r="1.8" fill="rgb(126 137 234)" fill-opacity="0.8846196841819105"></circle><circle cx="507.07031610309326" cy="169.3041665162993" r="1.8" fill="rgb(126 137 234)" fill-opacity="0.8846196841819105"></circle><circle cx="502.39570038118546" cy="212.33903601932124" r="1.8" fill="rgb(126 137 234)" fill-opacity="0.8846196841819105"></circle><circle cx="500.4471155452807" cy="268.41238804469623" r="1.8" fill="rgb(126 137 234)" fill-opacity="0.8846196841819105"></circle><circle cx="505.747535742408" cy="309.81156190470193" r="1.8" fill="rgb(126 137 234)" fill-opacity="0.8846196841819105"></circle><circle cx="504.16206423459914" cy="356.12240991105955" r="1.8" fill="rgb(126 137 234)" fill-opacity="0.8846196841819105"></circle><circle cx="504.14420400552115" cy="407.33583882132547" r="1.8" fill="rgb(126 137 234)" fill-opacity="0.8846196841819105"></circle><circle cx="506.5223873264951" cy="452.9488227589826" r="1.8" fill="rgb(126 137 234)" fill-opacity="0.8846196841819105"></circle><circle cx="506.1786767544605" cy="501.02280127797434" r="1.8" fill="rgb(126 137 234)" fill-opacity="0.8846196841819105"></circle><circle cx="501.64090571180225" cy="549.3315299946355" r="1.8" fill="rgb(126 137 234)" fill-opacity="0.8846196841819105"></circle><circle cx="554.1073333701385" cy="21.400693329229732" r="1.8" fill="rgb(127 138 240)" fill-opacity="0.9099086055668951"></circle><circle cx="549.4153043645306" cy="74.4390673478753" r="1.8" fill="rgb(127 138 240)" fill-opacity="0.9099086055668951"></circle><circle cx="554.3327496925882" cy="119.90991692798634" r="1.8" fill="rgb(127 138 240)" fill-opacity="0.9099086055668951"></circle><circle cx="552.419106729875" cy="169.13609731704892" r="1.8" fill="rgb(127 138 240)" fill-opacity="0.9099086055668951"></circle><circle cx="550.1755918490755" cy="216.1001599862931" r="1.8" fill="rgb(127 138 240)" fill-opacity="0.9099086055668951"></circle><circle cx="549.6427197902691" cy="264.5277868120352" r="1.8" fill="rgb(127 138 240)" fill-opacity="0.9099086055668951"></circle><circle cx="553.2270607280782" cy="313.91236021480904" r="1.8" fill="rgb(127 138 240)" fill-opacity="0.9099086055668951"></circle><circle cx="549.6164619418173" cy="360.38876047888255" r="1.8" fill="rgb(127 138 240)" fill-opacity="0.9099086055668951"></circle><circle cx="551.2820338615861" cy="405.53912968092317" r="1.8" fill="rgb(127 138 240)" fill-opacity="0.9099086055668951"></circle><circle cx="554.3291870171859" cy="454.7413933618657" r="1.8" fill="rgb(127 138 240)" fill-opacity="0.9099086055668951"></circle><circle cx="550.0899809448706" cy="502.8006633274884" r="1.8" fill="rgb(127 138 240)" fill-opacity="0.9099086055668951"></circle><circle cx="551.1555960701444" cy="553.6248614100508" r="1.8" fill="rgb(127 138 240)" fill-opacity="0.9099086055668951"></circle><circle cx="600.8998555201634" cy="25.01781101788267" r="1.8" fill="rgb(128 139 244)" fill-opacity="0.9298768473594582"></circle><circle cx="600.7607001530629" cy="72.57754098359196" r="1.8" fill="rgb(128 139 244)" fill-opacity="0.9298768473594582"></circle><circle cx="601.0142823756303" cy="120.38263095999311" r="1.8" fill="rgb(128 139 244)" fill-opacity="0.9298768473594582"></circle><circle cx="600.5618537865217" cy="168.52289007767232" r="1.8" fill="rgb(128 139 244)" fill-opacity="0.9298768473594582"></circle><circle cx="599.4679546790749" cy="215.73118441630263" r="1.8" fill="rgb(128 139 244)" fill-opacity="0.9298768473594582"></circle><circle cx="600.4445681310723" cy="263.52001267710386" r="1.8" fill="rgb(128 139 244)" fill-opacity="0.9298768473594582"></circle><circle cx="599.2818416953487" cy="311.9902977620442" r="1.8" fill="rgb(128 139 244)" fill-opacity="0.9298768473594582"></circle><circle cx="600.2730967387553" cy="360.487088602276" r="1.8" fill="rgb(128 139 244)" fill-opacity="0.9298768473594582"></circle><circle cx="599.7956854124549" cy="408.5872203345532" r="1.8" fill="rgb(128 139 244)" fill-opacity="0.9298768473594582"></circle><circle cx="599.2814752859019" cy="456.66156840201194" r="1.8" fill="rgb(128 139 244)" fill-opacity="0.9298768473594582"></circle><circle cx="600.0542344430282" cy="503.8335866891606" r="1.8" fill="rgb(128 139 244)" fill-opacity="0.9298768473594582"></circle><circle cx="599.6988474955599" cy="552.8773917423878" r="1.8" fill="rgb(128 139 244)" fill-opacity="0.9298768473594582"></circle><circle cx="647.6787567783801" cy="24.04612678938452" r="1.8" fill="rgb(129 140 247)" fill-opacity="0.9438063732619276"></circle><circle cx="648.0344270189748" cy="72.13650165836624" r="1.8" fill="rgb(129 140 247)" fill-opacity="0.9438063732619276"></circle><circle cx="648.1087073767336" cy="119.6386102699494" r="1.8" fill="rgb(129 140 247)" fill-opacity="0.9438063732619276"></circle><circle cx="647.9305223996219" cy="168.38106079527142" r="1.8" fill="rgb(129 140 247)" fill-opacity="0.9438063732619276"></circle><circle cx="648.1817154316124" cy="216.01013328500704" r="1.8" fill="rgb(129 140 247)" fill-opacity="0.9438063732619276"></circle><circle cx="648.1671088823143" cy="263.8428219494913" r="1.8" fill="rgb(129 140 247)" fill-opacity="0.9438063732619276"></circle><circle cx="648.4070820551134" cy="311.62599744494275" r="1.8" fill="rgb(129 140 247)" fill-opacity="0.9438063732619276"></circle><circle cx="648.224784130465" cy="359.95427461389903" r="1.8" fill="rgb(129 140 247)" fill-opacity="0.9438063732619276"></circle><circle cx="647.7642253397244" cy="407.9933361488599" r="1.8" fill="rgb(129 140 247)" fill-opacity="0.9438063732619276"></circle><circle cx="647.7650173238843" cy="456.30367269115993" r="1.8" fill="rgb(129 140 247)" fill-opacity="0.9438063732619276"></circle><circle cx="648.4276586051644" cy="504.029587625302" r="1.8" fill="rgb(129 140 247)" fill-opacity="0.9438063732619276"></circle><circle cx="648.3806453029916" cy="551.7145729302636" r="1.8" fill="rgb(129 140 247)" fill-opacity="0.9438063732619276"></circle><circle cx="696" cy="24" r="1.8" fill="rgb(129 140 248)" fill-opacity="0.9500000000000001"></circle><circle cx="696" cy="72" r="1.8" fill="rgb(129 140 248)" fill-opacity="0.9500000000000001"></circle><circle cx="696" cy="120" r="1.8" fill="rgb(129 140 248)" fill-opacity="0.9500000000000001"></circle><circle cx="696" cy="168" r="1.8" fill="rgb(129 140 248)" fill-opacity="0.9500000000000001"></circle><circle cx="696" cy="216" r="1.8" fill="rgb(129 140 248)" fill-opacity="0.9500000000000001"></circle><circle cx="696" cy="264" r="1.8" fill="rgb(129 140 248)" fill-opacity="0.9500000000000001"></circle><circle cx="696" cy="312" r="1.8" fill="rgb(129 140 248)" fill-opacity="0.9500000000000001"></circle><circle cx="696" cy="360" r="1.8" fill="rgb(129 140 248)" fill-opacity="0.9500000000000001"></circle><circle cx="696" cy="408" r="1.8" fill="rgb(129 140 248)" fill-opacity="0.9500000000000001"></circle><circle cx="696" cy="456" r="1.8" fill="rgb(129 140 248)" fill-opacity="0.9500000000000001"></circle><circle cx="696" cy="504" r="1.8" fill="rgb(129 140 248)" fill-opacity="0.9500000000000001"></circle><circle cx="696" cy="552" r="1.8" fill="rgb(129 140 248)" fill-opacity="0.9500000000000001"></circle></g><g><g><circle cx="507.07031610309326" cy="169.3041665162993" r="6" fill="none" stroke="#6366F1" stroke-width="1" stroke-opacity="0.45"></circle><circle cx="507.07031610309326" cy="169.3041665162993" r="2.4" fill="#818CF8"></circle></g><g><circle cx="600.2730967387553" cy="360.487088602276" r="6" fill="none" stroke="#6366F1" stroke-width="1" stroke-opacity="0.45"></circle><circle cx="600.2730967387553" cy="360.487088602276" r="2.4" fill="#818CF8"></circle></g><g><circle cx="450.80301791569923" cy="407.77136607102875" r="6" fill="none" stroke="#6366F1" stroke-width="1" stroke-opacity="0.45"></circle><circle cx="450.80301791569923" cy="407.77136607102875" r="2.4" fill="#818CF8"></circle></g><g><circle cx="648.1817154316124" cy="216.01013328500704" r="6" fill="none" stroke="#6366F1" stroke-width="1" stroke-opacity="0.45"></circle><circle cx="648.1817154316124" cy="216.01013328500704" r="2.4" fill="#818CF8"></circle></g><g><circle cx="550.0899809448706" cy="502.8006633274884" r="6" fill="none" stroke="#6366F1" stroke-width="1" stroke-opacity="0.45"></circle><circle cx="550.0899809448706" cy="502.8006633274884" r="2.4" fill="#818CF8"></circle></g></g></g></svg>