<svg xmlns="http://www.w3.org/2000/svg" id="evaluation-map" viewBox="0 0 960 540" class="w-full" role="img" aria-label="Evaluation map plotting entities by structural clarity and semantic consistency. Evaluated entities cluster above the integrity threshold; one entity is highlighted with a score of 92 out of 100."><g stroke="#0B0F17" stroke-opacity="0.045" stroke-width="1"><line x1="64" y1="28" x2="64" y2="470"></line><line x1="112" y1="28" x2="112" y2="470"></line><line x1="160" y1="28" x2="160" y2="470"></line><line x1="208" y1="28" x2="208" y2="470"></line><line x1="256" y1="28" x2="256" y2="470"></line><line x1="304" y1="28" x2="304" y2="470"></line><line x1="352" y1="28" x2="352" y2="470"></line><line x1="400" y1="28" x2="400" y2="470"></line><line x1="448" y1="28" x2="448" y2="470"></line><line x1="496" y1="28" x2="496" y2="470"></line><line x1="544" y1="28" x2="544" y2="470"></line><line x1="592" y1="28" x2="592" y2="470"></line><line x1="640" y1="28" x2="640" y2="470"></line><line x1="688" y1="28" x2="688" y2="470"></line><line x1="736" y1="28" x2="736" y2="470"></line><line x1="784" y1="28" x2="784" y2="470"></line><line x1="832" y1="28" x2="832" y2="470"></line><line x1="880" y1="28" x2="880" y2="470"></line><line x1="64" y1="470" x2="920" y2="470"></line><line x1="64" y1="422" x2="920" y2="422"></line><line x1="64" y1="374" x2="920" y2="374"></line><line x1="64" y1="326" x2="920" y2="326"></line><line x1="64" y1="278" x2="920" y2="278"></line><line x1="64" y1="230" x2="920" y2="230"></line><line x1="64" y1="182" x2="920" y2="182"></line><line x1="64" y1="134" x2="920" y2="134"></line><line x1="64" y1="86" x2="920" y2="86"></line><line x1="64" y1="38" x2="920" y2="38"></line></g><g stroke="#D3D9E1" stroke-width="1"><line x1="64" y1="28" x2="64" y2="470"></line><line x1="64" y1="470" x2="920" y2="470"></line><line x1="64" y1="470" x2="64" y2="476"></line><line x1="160" y1="470" x2="160" y2="476"></line><line x1="256" y1="470" x2="256" y2="476"></line><line x1="352" y1="470" x2="352" y2="476"></line><line x1="448" y1="470" x2="448" y2="476"></line><line x1="544" y1="470" x2="544" y2="476"></line><line x1="640" y1="470" x2="640" y2="476"></line><line x1="736" y1="470" x2="736" y2="476"></line><line x1="832" y1="470" x2="832" y2="476"></line><line x1="58" y1="470" x2="64" y2="470"></line><line x1="58" y1="374" x2="64" y2="374"></line><line x1="58" y1="278" x2="64" y2="278"></line><line x1="58" y1="182" x2="64" y2="182"></line><line x1="58" y1="86" x2="64" y2="86"></line></g><text x="920" y="502" text-anchor="end" font-family="'IBM Plex Mono', monospace" font-size="11" letter-spacing="0.08em" fill="#6B7484">STRUCTURAL CLARITY →</text><text x="36" y="470" transform="rotate(-90 36 470)" text-anchor="start" font-family="'IBM Plex Mono', monospace" font-size="11" letter-spacing="0.08em" fill="#6B7484">SEMANTIC CONSISTENCY →</text><line x1="64" y1="340" x2="920" y2="120.00000000000003" stroke="#4F46E5" stroke-width="1" stroke-opacity="0.45" stroke-dasharray="4 5"></line><text x="430" y="238" transform="rotate(-14.4 430 238)" font-family="'IBM Plex Mono', monospace" font-size="10" letter-spacing="0.08em" fill="#4F46E5" fill-opacity="0.75">INTEGRITY THRESHOLD</text><g fill="#D3D9E1"><circle cx="128" cy="406" r="3.5"></circle><circle cx="176" cy="362" r="3.5"></circle><circle cx="210" cy="418" r="3.5"></circle><circle cx="258" cy="338" r="3.5"></circle><circle cx="302" cy="390" r="3.5"></circle><circle cx="330" cy="300" r="3.5"></circle><circle cx="378" cy="352" r="3.5"></circle><circle cx="416" cy="282" r="3.5"></circle><circle cx="455" cy="330" r="3.5"></circle><circle cx="500" cy="376" r="3.5"></circle><circle cx="540" cy="260" r="3.5"></circle><circle cx="586" cy="312" r="3.5"></circle><circle cx="640" cy="352" r="3.5"></circle><circle cx="700" cy="286" r="3.5"></circle></g><g fill="#4F46E5" fill-opacity="0.9"><circle cx="300" cy="208" r="4"></circle><circle cx="392" cy="196" r="4"></circle><circle cx="470" cy="168" r="4"></circle><circle cx="540" cy="190" r="4"></circle><circle cx="610" cy="148" r="4"></circle><circle cx="760" cy="128" r="4"></circle><circle cx="830" cy="96" r="4"></circle><circle cx="876" cy="108" r="4"></circle></g><circle cx="688" cy="132" r="11" fill="none" stroke="#4F46E5" stroke-width="1" stroke-opacity="0.4"></circle><circle cx="688" cy="132" r="4.5" fill="#4F46E5"></circle><line x1="696" y1="124" x2="726" y2="98" stroke="#D3D9E1" stroke-width="1"></line><g><rect x="726" y="52" width="170" height="58" rx="8" fill="#FFFFFF" stroke="#E5E7EB"></rect><text x="742" y="76" font-family="'IBM Plex Mono', monospace" font-size="10" letter-spacing="0.08em" fill="#6B7484">ENTITY 128</text><text x="742" y="98" font-family="'Inter', sans-serif" font-size="16" font-weight="600" fill="#0B0F17" style="font-variant-numeric:tabular-nums">Score 92<tspan fill="#9AA3B2">/100</tspan></text></g></svg>